<?xml version="1.0" encoding="utf-8"?>
<!-- Generator: Adobe Illustrator 23.0.1, SVG Export Plug-In . SVG Version: 6.00 Build 0)  -->
<svg version="1.1" id="Layer_1" xmlns="http://www.w3.org/2000/svg" xmlns:xlink="http://www.w3.org/1999/xlink" x="0px" y="0px"
	 viewBox="0 0 48 43" style="enable-background:new 0 0 48 43;" xml:space="preserve">
<style type="text/css">
	.st0{fill:#203442;}
	.st1{fill:#4C5665;}
	.st2{fill:#ECF0F1;}
	.st3{fill:#FACE53;}
</style>
<title></title>
<g id="Education">
	<path class="st0" d="M24.5,34L24.5,34C15.9,34,9,30.2,9,24V14h31v10C40,29.2,33.1,34,24.5,34z"/>
	<path class="st1" d="M46.2,10L27.3,0.8c-2.1-1-4.5-1-6.6,0L1.8,10c-1.6,0.8-2.3,2.7-1.5,4.4c0.3,0.7,0.9,1.3,1.6,1.6L4.5,17
		L21,24.1c1.9,0.8,4,0.8,5.9,0L43.5,17l2.5-1.1c1.7-0.7,2.4-2.6,1.7-4.3C47.4,10.9,46.9,10.3,46.2,10z"/>
	<path class="st2" d="M40,38c-0.6,0-1-0.4-1-1V19.4l-14.1-7.2c-0.5-0.3-0.7-0.9-0.4-1.3c0.3-0.5,0.9-0.7,1.3-0.4L41,18.1V37
		C41,37.6,40.6,38,40,38z"/>
	<ellipse class="st0" cx="24.5" cy="11" rx="4.5" ry="3"/>
	<circle class="st3" cx="40" cy="39" r="4"/>
</g>
</svg>
