<?xml version="1.0" encoding="utf-8"?>
<!-- Generator: Adobe Illustrator 23.0.1, SVG Export Plug-In . SVG Version: 6.00 Build 0)  -->
<svg version="1.1" id="Layer_1" xmlns="http://www.w3.org/2000/svg" xmlns:xlink="http://www.w3.org/1999/xlink" x="0px" y="0px"
	 viewBox="0 0 1236 495" style="enable-background:new 0 0 1236 495;" xml:space="preserve">
<style type="text/css">
	.st0{fill:#6D3DFC;}
	.st1{fill:#6D6DFC;}
	.st2{fill:#02C9B6;}
	.st3{fill:#44D7B6;}
	.st4{fill:#F9D748;}
	.st5{fill:none;stroke:#F9D748;stroke-width:0.5;stroke-miterlimit:10;}
	.st6{fill:none;stroke:#7388B1;stroke-width:7;stroke-miterlimit:10;}
	.st7{fill:#333160;}
	.st8{fill:#454360;}
	.st9{fill:#006CE5;}
	.st10{fill:none;stroke:#F9D748;stroke-width:14;stroke-miterlimit:10;}
	.st11{fill:none;stroke:#44D7B6;stroke-width:14;stroke-miterlimit:10;}
	.st12{fill:#006CE5;stroke:#006CE5;stroke-width:0.5;stroke-miterlimit:10;}
	.st13{fill:#F9C300;}
	.st14{fill:none;stroke:#F9C300;stroke-width:0.5;stroke-miterlimit:10;}
	.st15{fill:#FF0000;}
	.st16{fill:none;stroke:#8B88B1;stroke-width:7;stroke-miterlimit:10;}
	.st17{fill:#454360;stroke:#454360;stroke-width:12;stroke-miterlimit:10;}
</style>
<g>
	
		<image style="overflow:visible;opacity:0.5;enable-background:new    ;" width="172" height="374" xlink:href="26262812.png"  transform="matrix(1 0 0 1 928 76)">
	</image>
	<g>
		<path class="st0" d="M942.5,88.3c-0.2,0-0.3,0-0.5,0v342.8l142,1L942.5,88.3z"/>
	</g>
</g>
<path class="st1" d="M941.9,88.2L668.1,436.1l274.4,0.4V88.3C942.3,88.3,942.1,88.2,941.9,88.2z"/>
<g>
	<g>
		
			<image style="overflow:visible;opacity:0.5;enable-background:new    ;" width="168" height="294" xlink:href="26262810.png"  transform="matrix(1 0 0 1 647 161)">
		</image>
		<g>
			<path class="st2" d="M668.1,173.9L799,431.6l-137.3,4.8"/>
		</g>
	</g>
	<polyline class="st3" points="668.1,174 400,433 668.1,432.5 	"/>
</g>
<g>
	
		<image style="overflow:visible;opacity:0.5;enable-background:new    ;" width="252" height="175" xlink:href="26262811.png"  transform="matrix(1 0 0 1 174 278)">
	</image>
	<g>
		<path class="st4" d="M410.6,288.6c-0.1,0-0.1,0-0.1,0l-220,143.9h220.1V288.6L410.6,288.6z"/>
		<path class="st5" d="M410.6,288.6c-0.1,0-0.1,0-0.1,0l-220,143.9h220.1V288.6L410.6,288.6z"/>
	</g>
</g>
<g>
	<path class="st6" d="M189.5,425.3c0,0.7,0.6,1.3,1.3,1.3s1.3-0.6,1.3-1.3V9.3c0-0.7-0.6-1.3-1.3-1.3s-1.3,0.6-1.3,1.3V425.3z"/>
</g>
<g>
	<g>
		<path class="st7" d="M155.3,486c5.8-5.5,9.9-9.4,9.9-12.7c0-2.2-1.2-3.4-3.2-3.4c-1.6,0-2.9,1.1-4.1,2.3l-2.9-2.9
			c2.2-2.4,4.4-3.6,7.7-3.6c4.5,0,7.6,2.9,7.6,7.3c0,3.8-3.6,8-7.3,11.8c1.2-0.1,2.8-0.3,3.8-0.3h4.6v4.4h-16.1V486z"/>
		<path class="st7" d="M174.3,477.5c0-7.8,3.3-11.8,8.2-11.8s8.2,4,8.2,11.8s-3.3,12-8.2,12S174.3,485.2,174.3,477.5z M185.7,477.5
			c0-6.2-1.4-7.7-3.2-7.7s-3.2,1.4-3.2,7.7s1.4,7.9,3.2,7.9C184.3,485.3,185.7,483.7,185.7,477.5z"/>
		<path class="st7" d="M194.5,484.7h5v-13.2h-4.3v-3.3c2.5-0.5,4.1-1.1,5.7-2.1h3.9v18.6h4.3v4.3h-14.6L194.5,484.7L194.5,484.7z"/>
		<path class="st7" d="M212.3,477.5c0-7.8,3.3-11.8,8.2-11.8s8.2,4,8.2,11.8s-3.3,12-8.2,12S212.3,485.2,212.3,477.5z M223.7,477.5
			c0-6.2-1.4-7.7-3.2-7.7s-3.2,1.4-3.2,7.7s1.4,7.9,3.2,7.9C222.3,485.3,223.7,483.7,223.7,477.5z"/>
	</g>
</g>
<g>
	<g>
		<path class="st8" d="M368.3,486c5.8-5.5,9.9-9.4,9.9-12.7c0-2.2-1.2-3.4-3.2-3.4c-1.6,0-2.9,1.1-4.1,2.3l-2.9-2.9
			c2.2-2.4,4.4-3.6,7.7-3.6c4.5,0,7.6,2.9,7.6,7.3c0,3.8-3.6,8-7.3,11.8c1.2-0.1,2.8-0.3,3.8-0.3h4.6v4.4h-16.1V486z"/>
		<path class="st8" d="M387.3,477.5c0-7.8,3.3-11.8,8.2-11.8c4.9,0,8.2,4,8.2,11.8s-3.3,12-8.2,12
			C390.6,489.4,387.3,485.2,387.3,477.5z M398.7,477.5c0-6.2-1.4-7.7-3.2-7.7c-1.8,0-3.2,1.4-3.2,7.7s1.4,7.9,3.2,7.9
			C397.3,485.3,398.7,483.7,398.7,477.5z"/>
		<path class="st8" d="M407.5,484.7h5v-13.2h-4.3v-3.3c2.5-0.5,4.1-1.1,5.7-2.1h3.9v18.6h4.3v4.3h-14.6V484.7z"/>
		<path class="st8" d="M434.6,475.8c0-1.5,0.1-3.7,0.2-5.1h-0.1c-0.6,1.3-1.2,2.6-1.9,3.9l-3,5h12.4v4h-17.5v-3.7l8.3-13.7h6.5V489
			h-4.9V475.8z"/>
	</g>
</g>
<g>
	<g>
		<path class="st8" d="M630.3,486c5.8-5.5,9.9-9.4,9.9-12.7c0-2.2-1.2-3.4-3.2-3.4c-1.6,0-2.9,1.1-4.1,2.3l-2.9-2.9
			c2.2-2.4,4.4-3.6,7.7-3.6c4.5,0,7.6,2.9,7.6,7.3c0,3.8-3.6,8-7.3,11.8c1.2-0.1,2.8-0.3,3.8-0.3h4.6v4.4h-16.1V486z"/>
		<path class="st8" d="M649.3,477.5c0-7.8,3.3-11.8,8.2-11.8s8.2,4,8.2,11.8s-3.3,12-8.2,12C652.6,489.4,649.3,485.2,649.3,477.5z
			 M660.7,477.5c0-6.2-1.4-7.7-3.2-7.7s-3.2,1.4-3.2,7.7s1.4,7.9,3.2,7.9C659.3,485.3,660.7,483.7,660.7,477.5z"/>
		<path class="st8" d="M669.5,484.7h5v-13.2h-4.3v-3.3c2.5-0.5,4.1-1.1,5.7-2.1h3.9v18.6h4.3v4.3h-14.6L669.5,484.7L669.5,484.7z"/>
		<path class="st8" d="M697.9,470.6h-10.2v-4.4h15.9v3.3c-5.3,6.4-6,10.7-6.5,19.6h-5.3C692.2,481.4,693.5,476.6,697.9,470.6z"/>
	</g>
</g>
<g>
	<g>
		<path class="st8" d="M908.3,486c5.8-5.5,9.9-9.4,9.9-12.7c0-2.2-1.2-3.4-3.2-3.4c-1.6,0-2.9,1.1-4.1,2.3l-2.9-2.9
			c2.2-2.4,4.4-3.6,7.7-3.6c4.5,0,7.6,2.9,7.6,7.3c0,3.8-3.6,8-7.3,11.8c1.2-0.1,2.8-0.3,3.8-0.3h4.6v4.4h-16.1V486z"/>
		<path class="st8" d="M927.3,477.5c0-7.8,3.3-11.8,8.2-11.8s8.2,4,8.2,11.8s-3.3,12-8.2,12C930.6,489.4,927.3,485.2,927.3,477.5z
			 M938.7,477.5c0-6.2-1.4-7.7-3.2-7.7s-3.2,1.4-3.2,7.7s1.4,7.9,3.2,7.9C937.3,485.3,938.7,483.7,938.7,477.5z"/>
		<path class="st8" d="M946.3,486c5.8-5.5,9.9-9.4,9.9-12.7c0-2.2-1.2-3.4-3.2-3.4c-1.6,0-2.9,1.1-4.1,2.3l-2.9-2.9
			c2.3-2.4,4.4-3.6,7.7-3.6c4.5,0,7.6,2.9,7.6,7.3c0,3.8-3.6,8-7.3,11.8c1.2-0.1,2.8-0.3,3.8-0.3h4.6v4.4h-16.1V486z"/>
		<path class="st8" d="M965.3,477.5c0-7.8,3.3-11.8,8.2-11.8s8.2,4,8.2,11.8s-3.3,12-8.2,12S965.3,485.2,965.3,477.5z M976.7,477.5
			c0-6.2-1.4-7.7-3.2-7.7s-3.2,1.4-3.2,7.7s1.4,7.9,3.2,7.9C975.3,485.3,976.7,483.7,976.7,477.5z"/>
	</g>
</g>
<g>
	
		<image style="overflow:visible;opacity:0.5;enable-background:new    ;" width="60" height="57" xlink:href="2626281F.png"  transform="matrix(1 0 0 1 163 239)">
	</image>
	<g>
		<polygon class="st9" points="194.1,272.1 191,270.4 187.9,272.1 188.5,268.6 186,266.2 189.5,265.7 191,262.5 192.6,265.7 
			196.1,266.2 193.6,268.6 		"/>
		<polygon class="st10" points="194.1,272.1 191,270.4 187.9,272.1 188.5,268.6 186,266.2 189.5,265.7 191,262.5 192.6,265.7 
			196.1,266.2 193.6,268.6 		"/>
	</g>
</g>
<g>
	
		<image style="overflow:visible;opacity:0.5;enable-background:new    ;" width="60" height="57" xlink:href="2626281D.png"  transform="matrix(1 0 0 1 163 122)">
	</image>
	<g>
		<polygon class="st9" points="194.1,155.1 191,153.4 187.9,155.1 188.5,151.6 186,149.2 189.5,148.7 191,145.5 192.6,148.7 
			196.1,149.2 193.6,151.6 		"/>
		<polygon class="st11" points="194.1,155.1 191,153.4 187.9,155.1 188.5,151.6 186,149.2 189.5,148.7 191,145.5 192.6,148.7 
			196.1,149.2 193.6,151.6 		"/>
	</g>
</g>
<path class="st12" d="M399.5,432.5"/>
<g>
	
		<image style="overflow:visible;opacity:0.5;enable-background:new    ;" width="107" height="177" xlink:href="2626281C.png"  transform="matrix(1 0 0 1 393 273)">
	</image>
	<g>
		<path class="st13" d="M410.7,288.6c-0.1,0-0.1,0-0.2,0h-0.1l-2.9,145.6l75.4-4.7L410.7,288.6z"/>
		<path class="st14" d="M410.7,288.6c-0.1,0-0.1,0-0.2,0h-0.1l-2.9,145.6l75.4-4.7L410.7,288.6z"/>
	</g>
</g>
<path class="st15" d="M340,430"/>
<g>
	<path class="st16" d="M183,432.5c0,0.6,0.4,1,1,1h950.5c0.6,0,1-0.4,1-1s-0.4-1-1-1H184C183.4,431.5,183,431.9,183,432.5
		C183,432.5,183,431.9,183,432.5z"/>
</g>
<circle class="st17" cx="409" cy="433" r="10"/>
<circle class="st17" cx="668" cy="434" r="10"/>
<circle class="st17" cx="942" cy="434" r="10"/>
<circle class="st17" cx="191" cy="433" r="10"/>
<g>
	
		<image style="overflow:visible;opacity:0.5;enable-background:new    ;" width="85" height="70" xlink:href="26262809.png"  transform="matrix(1 0 0 1 171 7)">
	</image>
	<g>
		<polyline class="st0" points="186,19.9 185.5,58.7 240,59 227,39 240,20 		"/>
	</g>
</g>
<g>
	<g>
		<path class="st7" d="M3,19.4h4l3.5,9.6c0.4,1.2,0.8,2.6,1.3,3.9h0.1c0.4-1.3,0.8-2.6,1.2-3.9l3.4-9.6h3.9V39h-3.2v-9
			c0-1.8,0.3-4.4,0.4-6.2h-0.1l-1.6,4.6l-3.2,8.8h-2.1l-3.2-8.8l-1.6-4.6H5.7c0.2,1.8,0.4,4.4,0.4,6.2v9H3V19.4z"/>
		<path class="st7" d="M24.3,35c0-3.2,2.6-4.8,8.7-5.4c0-1.6-0.7-2.9-2.7-2.9c-1.5,0-2.8,0.7-4.1,1.5l-1.3-2.3c1.6-1,3.7-1.9,6-1.9
			c3.7,0,5.5,2.3,5.5,6.4V39h-2.8l-0.3-1.6h-0.1c-1.3,1.1-2.8,2-4.6,2C26.1,39.4,24.3,37.6,24.3,35z M33,35.1v-3.3
			c-4,0.5-5.3,1.5-5.3,3c0,1.3,0.9,1.9,2.1,1.9C31,36.6,31.9,36.1,33,35.1z"/>
		<path class="st7" d="M39.1,37.3l1.6-2.2c1.3,1,2.6,1.6,4.1,1.6c1.6,0,2.4-0.8,2.4-1.8c0-1.2-1.6-1.8-3.2-2.4
			c-1.9-0.7-4.1-1.8-4.1-4.3c0-2.6,2.1-4.4,5.4-4.4c2.1,0,3.7,0.8,4.9,1.8l-1.6,2.1c-1-0.8-2.1-1.3-3.2-1.3c-1.5,0-2.2,0.7-2.2,1.6
			c0,1.2,1.5,1.6,3.1,2.2c2,0.7,4.2,1.7,4.2,4.5c0,2.5-2,4.6-5.7,4.6C42.7,39.4,40.6,38.5,39.1,37.3z"/>
		<path class="st7" d="M54,34v-7h-2.1v-2.6l2.3-0.2l0.4-4h2.9v4h3.8V27h-3.8v7c0,1.7,0.7,2.6,2.1,2.6c0.5,0,1.1-0.2,1.5-0.3l0.6,2.5
			c-0.8,0.3-1.8,0.5-3,0.5C55.3,39.4,54,37.2,54,34z"/>
		<path class="st7" d="M63.4,31.6c0-4.8,3.3-7.7,6.8-7.7c4,0,6.1,2.9,6.1,7c0,0.7-0.1,1.3-0.2,1.7h-9.4c0.3,2.6,2,4.1,4.3,4.1
			c1.3,0,2.3-0.4,3.4-1.1l1.2,2.1c-1.4,0.9-3.2,1.6-5.1,1.6C66.6,39.4,63.4,36.5,63.4,31.6z M73.3,30.2c0-2.3-1-3.6-3-3.6
			c-1.7,0-3.2,1.3-3.5,3.6H73.3z"/>
		<path class="st7" d="M79.5,24.3h2.8l0.3,2.6h0.1c1.1-1.9,2.6-3,4.2-3c0.8,0,1.2,0.1,1.7,0.3l-0.6,3c-0.5-0.1-0.9-0.2-1.5-0.2
			c-1.2,0-2.6,0.8-3.5,3v9h-3.5V24.3z"/>
		<path class="st7" d="M90.5,25.7c1.7-0.9,2.5-2,2.5-3.8l-0.2-2.3l1.4,1.8c-0.4,0.4-0.9,0.6-1.4,0.6c-1.1,0-2-0.7-2-1.9
			c0-1.3,0.8-2.1,2-2.1c1.5,0,2.4,1.2,2.4,3.3c0,2.6-1.3,4.6-3.7,5.9L90.5,25.7z"/>
		<path class="st7" d="M97.5,37.3l1.6-2.2c1.3,1,2.6,1.6,4.1,1.6c1.6,0,2.4-0.8,2.4-1.8c0-1.2-1.6-1.8-3.2-2.4
			c-1.9-0.7-4.1-1.8-4.1-4.3c0-2.6,2.1-4.4,5.4-4.4c2.1,0,3.7,0.8,4.9,1.8l-1.6,2.1c-1-0.8-2.1-1.3-3.2-1.3c-1.5,0-2.2,0.7-2.2,1.6
			c0,1.2,1.5,1.6,3.1,2.2c2,0.7,4.2,1.7,4.2,4.5c0,2.5-2,4.6-5.7,4.6C101.1,39.4,99,38.5,97.5,37.3z"/>
		<path class="st7" d="M3,55.4h5.2c6,0,9.6,3.2,9.6,9.7S14.3,75,8.5,75H3V55.4z M8.1,72.2c3.9,0,6.2-2.2,6.2-7.1s-2.3-6.9-6.2-6.9
			H6.5v14H8.1z"/>
		<path class="st7" d="M20.5,67.6c0-4.8,3.3-7.7,6.8-7.7c4,0,6.1,2.9,6.1,7c0,0.7-0.1,1.3-0.2,1.7h-9.4c0.3,2.6,2,4.1,4.3,4.1
			c1.3,0,2.3-0.4,3.4-1.1l1.2,2.1c-1.4,0.9-3.2,1.6-5.1,1.6C23.7,75.4,20.5,72.5,20.5,67.6z M30.4,66.2c0-2.3-1-3.6-3-3.6
			c-1.7,0-3.2,1.3-3.5,3.6H30.4z"/>
		<path class="st7" d="M35.7,77.7c0-1.2,0.8-2.3,2.1-3.1v-0.1C37,74,36.5,73.2,36.5,72c0-1.1,0.8-2.1,1.6-2.7v-0.1
			c-1-0.7-1.9-2.1-1.9-3.9c0-3.4,2.7-5.3,5.8-5.3c0.8,0,1.6,0.1,2.2,0.4h5.3V63h-2.7c0.5,0.6,0.8,1.5,0.8,2.5c0,3.3-2.5,5-5.6,5
			c-0.6,0-1.3-0.1-2-0.4c-0.4,0.4-0.7,0.8-0.7,1.4c0,0.8,0.6,1.3,2.4,1.3h2.6c3.5,0,5.4,1.1,5.4,3.6c0,2.9-3,5.2-7.9,5.2
			C38.3,81.5,35.7,80.3,35.7,77.7z M46.4,76.9c0-1.1-0.9-1.5-2.6-1.5h-2c-0.8,0-1.4-0.1-2-0.2c-0.8,0.6-1.1,1.3-1.1,1.9
			c0,1.3,1.4,2.1,3.8,2.1C44.7,79.3,46.4,78.2,46.4,76.9z M44.6,65.2c0-1.8-1.1-2.9-2.6-2.9s-2.6,1-2.6,2.9s1.1,3,2.6,3
			S44.6,67.1,44.6,65.2z"/>
		<path class="st7" d="M52.3,60.3h2.8l0.3,2.6h0.1c1.1-1.9,2.6-3,4.2-3c0.8,0,1.2,0.1,1.7,0.3l-0.6,3c-0.5-0.1-0.9-0.2-1.5-0.2
			c-1.2,0-2.6,0.8-3.5,3v9h-3.5V60.3z"/>
		<path class="st7" d="M62.5,67.6c0-4.8,3.3-7.7,6.8-7.7c4,0,6.1,2.9,6.1,7c0,0.7-0.1,1.3-0.2,1.7h-9.4c0.3,2.6,2,4.1,4.3,4.1
			c1.3,0,2.3-0.4,3.4-1.1l1.2,2.1c-1.4,0.9-3.2,1.6-5.1,1.6C65.7,75.4,62.5,72.5,62.5,67.6z M72.4,66.2c0-2.3-1-3.6-3-3.6
			c-1.7,0-3.2,1.3-3.5,3.6H72.4z"/>
		<path class="st7" d="M77.7,67.6c0-4.8,3.3-7.7,6.8-7.7c4,0,6.1,2.9,6.1,7c0,0.7-0.1,1.3-0.2,1.7H81c0.3,2.6,2,4.1,4.3,4.1
			c1.3,0,2.3-0.4,3.4-1.1l1.2,2.1c-1.4,0.9-3.2,1.6-5.1,1.6C80.9,75.4,77.7,72.5,77.7,67.6z M87.6,66.2c0-2.3-1-3.6-3-3.6
			c-1.7,0-3.2,1.3-3.5,3.6H87.6z"/>
	</g>
</g>
<g>
	<g>
		<path class="st7" d="M3.2,135.1h6.3c4,0,7,1.2,7,4.8c0,1.8-1,3.6-2.7,4.2v0.1c2.2,0.5,3.8,2,3.8,4.7c0,3.9-3.2,5.8-7.5,5.8H3.2
			V135.1z M9.1,143.2c2.7,0,3.9-1.1,3.9-2.8c0-1.9-1.3-2.6-3.8-2.6H6.6v5.4L9.1,143.2L9.1,143.2z M9.6,152c2.9,0,4.5-1,4.5-3.2
			c0-2.1-1.6-3-4.5-3h-3v6.2H9.6z"/>
		<path class="st7" d="M20,150.7c0-3.2,2.6-4.8,8.7-5.4c0-1.6-0.7-2.9-2.7-2.9c-1.5,0-2.8,0.7-4.1,1.5l-1.3-2.3c1.6-1,3.7-1.9,6-1.9
			c3.7,0,5.5,2.3,5.5,6.4v8.7h-2.8L29,153h-0.1c-1.3,1.1-2.8,2-4.6,2C21.7,155,20,153.3,20,150.7z M28.6,150.7v-3.3
			c-4,0.5-5.3,1.5-5.3,3c0,1.3,0.9,1.9,2.1,1.9C26.6,152.3,27.5,151.7,28.6,150.7z"/>
		<path class="st7" d="M35.3,147.3c0-4.9,3.5-7.7,7.4-7.7c1.9,0,3.2,0.7,4.3,1.7l-1.7,2.2c-0.8-0.7-1.5-1.1-2.4-1.1
			c-2.4,0-4,2-4,4.9c0,3,1.6,4.9,3.9,4.9c1.2,0,2.2-0.6,3-1.3l1.4,2.3c-1.4,1.2-3.1,1.8-4.8,1.8C38.4,155,35.3,152.2,35.3,147.3z"/>
		<path class="st7" d="M50.1,133.5h3.5v5.5l-0.1,2.8c1.2-1.2,2.7-2.2,4.7-2.2c3.2,0,4.5,2.1,4.5,5.9v9.2h-3.5v-8.8
			c0-2.4-0.7-3.3-2.3-3.3c-1.3,0-2.1,0.6-3.4,1.8v10.3H50L50.1,133.5L50.1,133.5z"/>
		<path class="st7" d="M65.9,147.3c0-4.8,3.3-7.7,6.8-7.7c4,0,6.1,2.9,6.1,7c0,0.7-0.1,1.3-0.2,1.7h-9.4c0.3,2.6,2,4.1,4.3,4.1
			c1.3,0,2.3-0.4,3.4-1.1l1.2,2.1c-1.4,0.9-3.2,1.6-5.1,1.6C69.1,155,65.9,152.2,65.9,147.3z M75.8,145.9c0-2.3-1-3.6-3-3.6
			c-1.7,0-3.2,1.3-3.5,3.6H75.8z"/>
		<path class="st7" d="M82.1,150.9v-17.4h3.5v17.6c0,0.9,0.4,1.2,0.7,1.2c0.2,0,0.3,0,0.5-0.1l0.4,2.6c-0.4,0.2-1,0.3-1.8,0.3
			C83,155,82.1,153.5,82.1,150.9z"/>
		<path class="st7" d="M89.2,147.3c0-4.9,3.3-7.7,7-7.7s7,2.8,7,7.7s-3.3,7.7-7,7.7S89.2,152.2,89.2,147.3z M99.7,147.3
			c0-3-1.3-4.9-3.5-4.9s-3.5,2-3.5,4.9c0,3,1.3,4.9,3.5,4.9C98.4,152.2,99.7,150.3,99.7,147.3z"/>
		<path class="st7" d="M106.7,139.9h2.8l0.3,2.6h0.1c1.1-1.9,2.6-3,4.2-3c0.8,0,1.2,0.1,1.7,0.3l-0.6,3c-0.5-0.1-0.9-0.2-1.5-0.2
			c-1.2,0-2.6,0.8-3.5,3v9h-3.5V139.9z"/>
		<path class="st7" d="M117.7,141.4c1.7-0.9,2.5-2,2.5-3.8l-0.2-2.3l1.4,1.8c-0.4,0.4-0.9,0.6-1.4,0.6c-1.1,0-2-0.7-2-1.9
			c0-1.3,0.8-2.1,2-2.1c1.5,0,2.4,1.2,2.4,3.3c0,2.6-1.3,4.6-3.7,5.9L117.7,141.4z"/>
		<path class="st7" d="M124.6,153l1.6-2.2c1.3,1,2.6,1.6,4.1,1.6c1.6,0,2.4-0.8,2.4-1.8c0-1.2-1.6-1.8-3.2-2.4
			c-1.9-0.7-4.1-1.8-4.1-4.3c0-2.6,2.1-4.4,5.4-4.4c2.1,0,3.7,0.8,4.9,1.8l-1.6,2.1c-1-0.8-2.1-1.3-3.2-1.3c-1.5,0-2.2,0.7-2.2,1.6
			c0,1.2,1.5,1.6,3.1,2.2c2,0.7,4.2,1.7,4.2,4.5c0,2.5-2,4.6-5.7,4.6C128.2,155,126.1,154.2,124.6,153z"/>
		<path class="st7" d="M3.2,171.1h5.2c6,0,9.6,3.2,9.6,9.7s-3.6,9.9-9.4,9.9H3.2V171.1z M8.2,187.9c3.9,0,6.2-2.2,6.2-7.1
			s-2.3-6.9-6.2-6.9H6.6v14H8.2z"/>
		<path class="st7" d="M20.6,183.3c0-4.8,3.3-7.7,6.8-7.7c4,0,6.1,2.9,6.1,7c0,0.7-0.1,1.3-0.2,1.7H24c0.3,2.6,2,4.1,4.3,4.1
			c1.3,0,2.3-0.4,3.4-1.1l1.2,2.1c-1.4,0.9-3.2,1.6-5.1,1.6C23.8,191,20.6,188.2,20.6,183.3z M30.5,181.9c0-2.3-1-3.6-3-3.6
			c-1.7,0-3.2,1.3-3.5,3.6H30.5z"/>
		<path class="st7" d="M35.8,193.4c0-1.2,0.8-2.3,2.1-3.1v-0.1c-0.8-0.5-1.3-1.3-1.3-2.5c0-1.1,0.8-2.1,1.6-2.7v-0.1
			c-1-0.7-1.9-2.1-1.9-3.9c0-3.4,2.7-5.3,5.8-5.3c0.8,0,1.6,0.1,2.2,0.4h5.3v2.6h-2.7c0.5,0.6,0.8,1.5,0.8,2.5c0,3.3-2.5,5-5.6,5
			c-0.6,0-1.3-0.1-2-0.4c-0.4,0.4-0.7,0.8-0.7,1.4c0,0.8,0.6,1.3,2.4,1.3h2.6c3.5,0,5.4,1.1,5.4,3.6c0,2.9-3,5.2-7.9,5.2
			C38.4,197.2,35.8,195.9,35.8,193.4z M46.5,192.6c0-1.1-0.9-1.5-2.6-1.5h-2c-0.8,0-1.4-0.1-2-0.2c-0.8,0.6-1.1,1.3-1.1,1.9
			c0,1.3,1.4,2.1,3.8,2.1C44.8,195,46.5,193.8,46.5,192.6z M44.7,180.9c0-1.8-1.1-2.9-2.6-2.9s-2.6,1-2.6,2.9s1.1,3,2.6,3
			S44.7,182.7,44.7,180.9z"/>
		<path class="st7" d="M52.4,175.9h2.8l0.3,2.6h0.1c1.1-1.9,2.6-3,4.2-3c0.8,0,1.2,0.1,1.7,0.3l-0.6,3c-0.5-0.1-0.9-0.2-1.5-0.2
			c-1.2,0-2.6,0.8-3.5,3v9h-3.5V175.9z"/>
		<path class="st7" d="M62.6,183.3c0-4.8,3.3-7.7,6.8-7.7c4,0,6.1,2.9,6.1,7c0,0.7-0.1,1.3-0.2,1.7H66c0.3,2.6,2,4.1,4.3,4.1
			c1.3,0,2.3-0.4,3.4-1.1l1.2,2.1c-1.4,0.9-3.2,1.6-5.1,1.6C65.8,191,62.6,188.2,62.6,183.3z M72.5,181.9c0-2.3-1-3.6-3-3.6
			c-1.7,0-3.2,1.3-3.5,3.6H72.5z"/>
		<path class="st7" d="M77.8,183.3c0-4.8,3.3-7.7,6.8-7.7c4,0,6.1,2.9,6.1,7c0,0.7-0.1,1.3-0.2,1.7h-9.4c0.3,2.6,2,4.1,4.3,4.1
			c1.3,0,2.3-0.4,3.4-1.1l1.2,2.1c-1.4,0.9-3.2,1.6-5.1,1.6C81,191,77.8,188.2,77.8,183.3z M87.7,181.9c0-2.3-1-3.6-3-3.6
			c-1.7,0-3.2,1.3-3.5,3.6H87.7z"/>
	</g>
</g>
<g>
	<g>
		<path class="st7" d="M3,262.4h3.5v7.9h7.9v-7.9h3.5V282h-3.5v-8.7h-8v8.7H3V262.4z"/>
		<path class="st7" d="M22.2,262.7c0-1.2,0.9-2,2.1-2s2.1,0.8,2.1,2c0,1.1-0.9,2-2.1,2S22.2,263.9,22.2,262.7z M22.6,267.3H26V282
			h-3.5v-14.7H22.6z"/>
		<path class="st7" d="M29.4,284.7c0-1.2,0.8-2.3,2.1-3.1v-0.1c-0.8-0.5-1.3-1.3-1.3-2.5c0-1.1,0.8-2.1,1.6-2.7v-0.1
			c-1-0.7-1.9-2.1-1.9-3.9c0-3.4,2.7-5.3,5.8-5.3c0.8,0,1.6,0.1,2.2,0.4h5.3v2.6h-2.7c0.5,0.6,0.8,1.5,0.8,2.5c0,3.3-2.5,5-5.6,5
			c-0.6,0-1.3-0.1-2-0.4c-0.4,0.4-0.7,0.8-0.7,1.4c0,0.8,0.6,1.3,2.4,1.3H38c3.5,0,5.4,1.1,5.4,3.6c0,2.9-3,5.2-7.9,5.2
			C32,288.5,29.4,287.3,29.4,284.7z M40.1,283.9c0-1.1-0.9-1.5-2.6-1.5h-2c-0.8,0-1.4-0.1-2-0.2c-0.8,0.6-1.1,1.3-1.1,1.9
			c0,1.3,1.4,2.1,3.8,2.1C38.4,286.3,40.1,285.2,40.1,283.9z M38.3,272.2c0-1.8-1.1-2.9-2.6-2.9s-2.6,1-2.6,2.9s1.1,3,2.6,3
			S38.3,274.1,38.3,272.2z"/>
		<path class="st7" d="M46,260.8h3.5v5.5l-0.1,2.8c1.2-1.2,2.7-2.2,4.7-2.2c3.2,0,4.5,2.1,4.5,5.9v9.2h-3.5v-8.8
			c0-2.4-0.7-3.3-2.3-3.3c-1.3,0-2.1,0.6-3.4,1.8V282H46V260.8z"/>
		<path class="st7" d="M67.7,279.5l2-2.4c1.4,1.3,3.3,2.2,5.1,2.2c2.2,0,3.4-1,3.4-2.5c0-1.6-1.3-2.1-3-2.9l-2.7-1.2
			c-1.9-0.8-4-2.3-4-5.2c0-3.1,2.8-5.5,6.6-5.5c2.3,0,4.5,0.9,6,2.5l-1.8,2.2c-1.2-1.1-2.6-1.7-4.3-1.7c-1.9,0-3.1,0.9-3.1,2.3
			c0,1.5,1.5,2.1,3.1,2.8l2.6,1.1c2.3,1,4,2.4,4,5.3c0,3.2-2.6,5.8-7,5.8C72.1,282.4,69.6,281.3,67.7,279.5z"/>
		<path class="st7" d="M84.1,274.6c0-4.9,3.5-7.7,7.4-7.7c1.9,0,3.2,0.7,4.3,1.7l-1.7,2.2c-0.8-0.7-1.5-1.1-2.4-1.1
			c-2.4,0-4,2-4,4.9c0,3,1.6,4.9,3.9,4.9c1.2,0,2.2-0.6,3-1.3l1.4,2.3c-1.4,1.2-3.1,1.8-4.8,1.8C87.2,282.4,84.1,279.5,84.1,274.6z"
			/>
		<path class="st7" d="M99,260.8h3.5v5.5l-0.1,2.8c1.2-1.2,2.7-2.2,4.7-2.2c3.2,0,4.5,2.1,4.5,5.9v9.2h-3.5v-8.8
			c0-2.4-0.7-3.3-2.3-3.3c-1.3,0-2.1,0.6-3.4,1.8V282H99V260.8z"/>
		<path class="st7" d="M114.7,274.6c0-4.9,3.3-7.7,7-7.7s7,2.8,7,7.7c0,4.9-3.3,7.7-7,7.7S114.7,279.5,114.7,274.6z M125.2,274.6
			c0-3-1.3-4.9-3.5-4.9s-3.5,2-3.5,4.9c0,3,1.3,4.9,3.5,4.9C123.9,279.5,125.2,277.6,125.2,274.6z"/>
		<path class="st7" d="M131.2,274.6c0-4.9,3.3-7.7,7-7.7s7,2.8,7,7.7c0,4.9-3.3,7.7-7,7.7C134.5,282.4,131.2,279.5,131.2,274.6z
			 M141.7,274.6c0-3-1.3-4.9-3.5-4.9s-3.5,2-3.5,4.9c0,3,1.3,4.9,3.5,4.9S141.7,277.6,141.7,274.6z"/>
		<path class="st7" d="M148.6,278.2v-17.4h3.5v17.6c0,0.9,0.4,1.2,0.7,1.2c0.2,0,0.3,0,0.5-0.1l0.4,2.6c-0.4,0.2-1,0.3-1.8,0.3
			C149.5,282.4,148.6,280.8,148.6,278.2z"/>
	</g>
</g>
<g>
	<g>
		<path class="st7" d="M953.1,36.9l1.2-1.4c1.1,1.2,2.7,2,4.3,2c2.1,0,3.3-1,3.3-2.6s-1.1-2.1-2.6-2.8l-2.3-1
			c-1.5-0.6-3.2-1.7-3.2-4.1s2.1-4.2,5-4.2c1.9,0,3.5,0.8,4.6,2l-1.1,1.3c-1-0.9-2.1-1.5-3.6-1.5c-1.8,0-2.9,0.9-2.9,2.3
			c0,1.5,1.4,2.1,2.6,2.6l2.2,1c1.8,0.8,3.2,1.9,3.2,4.2c0,2.5-2.1,4.5-5.4,4.5C956.4,39.2,954.4,38.3,953.1,36.9z"/>
		<path class="st7" d="M966,33.1c0-3.9,2.5-6.1,5.4-6.1s5.4,2.2,5.4,6.1s-2.5,6.1-5.4,6.1C968.5,39.2,966,37,966,33.1z M974.7,33.1
			c0-2.7-1.4-4.5-3.4-4.5s-3.4,1.8-3.4,4.5s1.4,4.5,3.4,4.5C973.4,37.6,974.7,35.8,974.7,33.1z"/>
		<path class="st7" d="M986.3,35.3v-6.5h-7.7v-1.5l1.7-0.1h6.2l0.2-3.3h1.6v3.3h3.2v1.6h-3.2v6.5c0,1.4,0.5,2.3,1.8,2.3
			c0.4,0,1-0.2,1.3-0.3l0.4,1.5c-0.7,0.2-1.4,0.4-2.2,0.4C987.2,39.2,986.3,37.7,986.3,35.3z M980.2,25.4c0-2.4,1.1-3.9,3.4-3.9
			c0.7,0,1.4,0.2,1.9,0.4l-0.4,1.5c-0.4-0.2-0.9-0.3-1.3-0.3c-1.1,0-1.6,0.8-1.6,2.3v13.5h-2L980.2,25.4L980.2,25.4z"/>
		<path class="st7" d="M992.7,27.3h2l1.7,6.7c0.3,1.1,0.5,2.2,0.7,3.3h0.1c0.3-1.1,0.5-2.2,0.8-3.3l1.8-6.7h1.9l1.8,6.7
			c0.3,1.1,0.5,2.2,0.8,3.3h0.1c0.3-1.1,0.5-2.1,0.7-3.3l1.7-6.7h1.9l-3.1,11.7h-2.4l-1.7-6.3c-0.3-1.1-0.5-2.2-0.8-3.4h-0.1
			c-0.3,1.2-0.5,2.3-0.8,3.4l-1.6,6.2h-2.3L992.7,27.3z"/>
		<path class="st7" d="M1010.6,35.9c0-2.5,2.2-3.8,7.2-4.4c0-1.5-0.5-2.9-2.4-2.9c-1.3,0-2.6,0.6-3.5,1.3l-0.8-1.4
			c1.1-0.7,2.7-1.5,4.6-1.5c2.8,0,4.1,1.9,4.1,4.8V39h-1.6l-0.2-1.4h-0.1c-1.1,0.9-2.4,1.7-3.9,1.7
			C1012.1,39.2,1010.6,38,1010.6,35.9z M1017.8,36.1v-3.2c-3.9,0.5-5.2,1.4-5.2,2.9c0,1.3,0.9,1.9,2,1.9
			C1015.7,37.6,1016.6,37.1,1017.8,36.1z"/>
		<path class="st7" d="M1023.4,27.3h1.6l0.2,2.1h0.1c0.8-1.5,2-2.4,3.3-2.4c0.5,0,0.9,0.1,1.2,0.2l-0.4,1.7
			c-0.4-0.1-0.7-0.2-1.1-0.2c-1,0-2.2,0.7-3,2.7v7.5h-2V27.3H1023.4z"/>
		<path class="st7" d="M1030.9,33.1c0-3.8,2.6-6.1,5.2-6.1c3,0,4.7,2.1,4.7,5.5c0,0.4,0,0.8-0.1,1.1h-7.9c0.1,2.5,1.7,4.1,3.9,4.1
			c1.1,0,2-0.4,2.9-0.9l0.7,1.3c-1,0.7-2.3,1.2-3.9,1.2C1033.4,39.2,1030.9,37,1030.9,33.1z M1039,32.2c0-2.3-1.1-3.6-2.9-3.6
			c-1.6,0-3.1,1.3-3.3,3.6H1039z"/>
		<path class="st7" d="M1048.6,23.2h9.1v1.7h-7.1v4.9h6v1.7h-6v5.7h7.3v1.7h-9.3V23.2z"/>
		<path class="st7" d="M1061.1,27.3h1.6l0.2,1.7h0.1c1.1-1.1,2.3-2,3.9-2c2.5,0,3.6,1.6,3.6,4.6V39h-2v-7.1c0-2.2-0.7-3.1-2.2-3.1
			c-1.2,0-2,0.6-3.2,1.8V39h-2V27.3z"/>
		<path class="st7" d="M1073.3,41.2c0-1,0.6-1.9,1.7-2.6v-0.1c-0.6-0.4-1-1-1-1.9c0-1,0.7-1.7,1.3-2.2v-0.1
			c-0.8-0.6-1.5-1.7-1.5-3.1c0-2.6,2-4.2,4.4-4.2c0.6,0,1.2,0.1,1.6,0.3h4.1v1.5h-2.4c0.6,0.5,1,1.4,1,2.4c0,2.5-1.9,4-4.3,4
			c-0.6,0-1.2-0.1-1.7-0.4c-0.4,0.4-0.7,0.7-0.7,1.4s0.5,1.3,2,1.3h2.3c2.7,0,4.1,0.9,4.1,2.8c0,2.2-2.3,4-5.9,4
			C1075.3,44.3,1073.3,43.2,1073.3,41.2z M1082.1,40.6c0-1.1-0.8-1.4-2.4-1.4h-2c-0.4,0-1,0-1.5-0.2c-0.8,0.6-1.2,1.3-1.2,2
			c0,1.3,1.3,2,3.4,2C1080.7,42.9,1082.1,41.8,1082.1,40.6z M1080.6,31.1c0-1.7-1.1-2.7-2.5-2.7s-2.5,1-2.5,2.7
			c0,1.7,1.1,2.8,2.5,2.8S1080.6,32.8,1080.6,31.1z"/>
		<path class="st7" d="M1086,23.6c0-0.8,0.6-1.3,1.4-1.3s1.4,0.5,1.4,1.3c0,0.7-0.6,1.3-1.4,1.3S1086,24.3,1086,23.6z M1086.3,27.3
			h2V39h-2V27.3z"/>
		<path class="st7" d="M1092.2,27.3h1.6l0.2,1.7h0.1c1.1-1.1,2.3-2,3.9-2c2.5,0,3.6,1.6,3.6,4.6V39h-2v-7.1c0-2.2-0.7-3.1-2.2-3.1
			c-1.2,0-2,0.6-3.2,1.8V39h-2V27.3z"/>
		<path class="st7" d="M1104.5,33.1c0-3.8,2.6-6.1,5.2-6.1c3,0,4.7,2.1,4.7,5.5c0,0.4,0,0.8-0.1,1.1h-7.9c0.1,2.5,1.7,4.1,3.9,4.1
			c1.1,0,2-0.4,2.9-0.9l0.7,1.3c-1,0.7-2.3,1.2-3.9,1.2C1107,39.2,1104.5,37,1104.5,33.1z M1112.6,32.2c0-2.3-1.1-3.6-2.9-3.6
			c-1.6,0-3.1,1.3-3.3,3.6H1112.6z"/>
		<path class="st7" d="M1116.4,33.1c0-3.8,2.6-6.1,5.2-6.1c3,0,4.7,2.1,4.7,5.5c0,0.4,0,0.8-0.1,1.1h-7.9c0.1,2.5,1.7,4.1,3.9,4.1
			c1.1,0,2-0.4,2.9-0.9l0.7,1.3c-1,0.7-2.3,1.2-3.9,1.2C1118.9,39.2,1116.4,37,1116.4,33.1z M1124.5,32.2c0-2.3-1.1-3.6-2.9-3.6
			c-1.6,0-3.1,1.3-3.3,3.6H1124.5z"/>
		<path class="st7" d="M1129.2,27.3h1.6l0.2,2.1h0.1c0.8-1.5,2-2.4,3.3-2.4c0.5,0,0.9,0.1,1.2,0.2l-0.4,1.7
			c-0.4-0.1-0.7-0.2-1.1-0.2c-1,0-2.2,0.7-3,2.7v7.5h-2V27.3H1129.2z"/>
		<path class="st7" d="M1137.1,23.6c0-0.8,0.6-1.3,1.4-1.3s1.4,0.5,1.4,1.3c0,0.7-0.6,1.3-1.4,1.3S1137.1,24.3,1137.1,23.6z
			 M1137.5,27.3h2V39h-2V27.3z"/>
		<path class="st7" d="M1143.4,27.3h1.6l0.2,1.7h0.1c1.1-1.1,2.3-2,3.9-2c2.5,0,3.6,1.6,3.6,4.6V39h-2v-7.1c0-2.2-0.7-3.1-2.2-3.1
			c-1.2,0-2,0.6-3.2,1.8V39h-2V27.3z"/>
		<path class="st7" d="M1155.6,41.2c0-1,0.6-1.9,1.7-2.6v-0.1c-0.6-0.4-1-1-1-1.9c0-1,0.7-1.7,1.3-2.2v-0.1
			c-0.8-0.6-1.5-1.7-1.5-3.1c0-2.6,2-4.2,4.4-4.2c0.6,0,1.2,0.1,1.6,0.3h4.1v1.5h-2.4c0.6,0.5,1,1.4,1,2.4c0,2.5-1.9,4-4.3,4
			c-0.6,0-1.2-0.1-1.7-0.4c-0.4,0.4-0.7,0.7-0.7,1.4s0.5,1.3,2,1.3h2.3c2.7,0,4.1,0.9,4.1,2.8c0,2.2-2.3,4-5.9,4
			C1157.6,44.3,1155.6,43.2,1155.6,41.2z M1164.4,40.6c0-1.1-0.8-1.4-2.4-1.4h-2c-0.4,0-1,0-1.5-0.2c-0.8,0.6-1.2,1.3-1.2,2
			c0,1.3,1.3,2,3.4,2C1163,42.9,1164.4,41.8,1164.4,40.6z M1162.9,31.1c0-1.7-1.1-2.7-2.5-2.7s-2.5,1-2.5,2.7c0,1.7,1.1,2.8,2.5,2.8
			S1162.9,32.8,1162.9,31.1z"/>
		<path class="st7" d="M954.2,49.2h4.5c3.5,0,5.9,1.2,5.9,4.6c0,3.3-2.4,4.9-5.8,4.9h-2.6v6.2h-2L954.2,49.2L954.2,49.2z
			 M958.5,57.1c2.8,0,4.1-1,4.1-3.2c0-2.3-1.4-3-4.2-3h-2.2v6.3L958.5,57.1L958.5,57.1z"/>
		<path class="st7" d="M966.7,59.1c0-3.9,2.5-6.1,5.4-6.1s5.4,2.2,5.4,6.1s-2.5,6.1-5.4,6.1C969.3,65.2,966.7,63,966.7,59.1z
			 M975.5,59.1c0-2.7-1.4-4.5-3.4-4.5s-3.4,1.8-3.4,4.5s1.4,4.5,3.4,4.5S975.5,61.8,975.5,59.1z"/>
		<path class="st7" d="M980.6,62.6V47.8h2v14.9c0,0.6,0.3,0.8,0.6,0.8c0.1,0,0.2,0,0.4,0l0.3,1.5c-0.3,0.1-0.6,0.2-1.1,0.2
			C981.2,65.2,980.6,64.3,980.6,62.6z"/>
		<path class="st7" d="M985.6,69.7l0.4-1.6c0.2,0.1,0.6,0.2,0.9,0.2c1.3,0,2.1-1.1,2.6-2.5l0.3-0.9L985,53.3h2l2.4,6.5
			c0.4,1,0.8,2.2,1.1,3.3h0.1c0.3-1.1,0.7-2.3,1-3.3l2.1-6.5h1.9l-4.4,12.6c-0.8,2.3-2,4.1-4.4,4.1C986.4,70,985.9,69.9,985.6,69.7z
			"/>
		<path class="st7" d="M998.3,61.3v-6.5h-1.7v-1.5l1.8-0.1l0.2-3.3h1.6v3.3h3.2v1.6h-3.2v6.5c0,1.4,0.5,2.3,1.8,2.3
			c0.4,0,1-0.2,1.3-0.3l0.4,1.5c-0.7,0.2-1.4,0.4-2.2,0.4C999.1,65.2,998.3,63.7,998.3,61.3z"/>
		<path class="st7" d="M1005.2,59.1c0-3.8,2.6-6.1,5.2-6.1c3,0,4.7,2.1,4.7,5.5c0,0.4,0,0.8-0.1,1.1h-7.9c0.1,2.5,1.7,4.1,3.9,4.1
			c1.1,0,2-0.4,2.9-0.9l0.7,1.3c-1,0.7-2.3,1.2-3.9,1.2C1007.7,65.2,1005.2,63,1005.2,59.1z M1013.3,58.2c0-2.3-1.1-3.6-2.9-3.6
			c-1.6,0-3.1,1.3-3.3,3.6H1013.3z"/>
		<path class="st7" d="M1017.1,59.1c0-3.9,2.6-6.1,5.6-6.1c1.5,0,2.6,0.6,3.4,1.4l-1,1.3c-0.7-0.6-1.4-1-2.3-1
			c-2.1,0-3.7,1.8-3.7,4.5s1.5,4.5,3.6,4.5c1.1,0,2-0.5,2.7-1.2l0.9,1.3c-1,0.9-2.4,1.5-3.8,1.5C1019.4,65.2,1017.1,63,1017.1,59.1z
			"/>
		<path class="st7" d="M1028.9,47.8h2v4.7l-0.1,2.4c1.1-1.1,2.3-1.9,3.9-1.9c2.5,0,3.6,1.6,3.6,4.6V65h-2v-7.1
			c0-2.2-0.7-3.1-2.2-3.1c-1.2,0-2,0.6-3.2,1.8V65h-2L1028.9,47.8L1028.9,47.8z"/>
		<path class="st7" d="M1041.9,53.3h1.6l0.2,1.7h0.1c1.1-1.1,2.3-2,3.9-2c2.5,0,3.6,1.6,3.6,4.6V65h-2v-7.1c0-2.2-0.7-3.1-2.2-3.1
			c-1.2,0-2,0.6-3.2,1.8V65h-2V53.3z"/>
		<path class="st7" d="M1054.7,49.6c0-0.8,0.6-1.3,1.4-1.3s1.4,0.5,1.4,1.3c0,0.7-0.6,1.3-1.4,1.3S1054.7,50.3,1054.7,49.6z
			 M1055.1,53.3h2V65h-2V53.3z"/>
		<path class="st7" d="M1060.1,59.1c0-3.9,2.6-6.1,5.6-6.1c1.5,0,2.6,0.6,3.4,1.4l-1,1.3c-0.7-0.6-1.4-1-2.3-1
			c-2.1,0-3.7,1.8-3.7,4.5s1.5,4.5,3.6,4.5c1.1,0,2-0.5,2.7-1.2l0.9,1.3c-1,0.9-2.4,1.5-3.8,1.5C1062.5,65.2,1060.1,63,1060.1,59.1z
			"/>
		<path class="st7" d="M1075.9,59.1c0-3.9,2.5-6.1,5.4-6.1s5.4,2.2,5.4,6.1s-2.5,6.1-5.4,6.1S1075.9,63,1075.9,59.1z M1084.6,59.1
			c0-2.7-1.4-4.5-3.4-4.5s-3.4,1.8-3.4,4.5s1.4,4.5,3.4,4.5C1083.3,63.6,1084.6,61.8,1084.6,59.1z"/>
		<path class="st7" d="M1088.5,53.4l1.7-0.1h4.4v1.6h-6L1088.5,53.4L1088.5,53.4z M1090.1,51.4c0-2.4,1.1-3.9,3.4-3.9
			c0.7,0,1.4,0.2,1.9,0.4l-0.4,1.5c-0.4-0.2-0.9-0.3-1.3-0.3c-1.1,0-1.6,0.8-1.6,2.3v13.5h-2V51.4z"/>
		<path class="st7" d="M1101.7,49.2h4.5c3.5,0,5.9,1.2,5.9,4.6c0,3.3-2.4,4.9-5.8,4.9h-2.6v6.2h-2V49.2z M1106.1,57.1
			c2.8,0,4.1-1,4.1-3.2c0-2.3-1.4-3-4.2-3h-2.2v6.3L1106.1,57.1L1106.1,57.1z"/>
		<path class="st7" d="M1114.3,59.1c0-3.9,2.5-6.1,5.4-6.1s5.4,2.2,5.4,6.1s-2.5,6.1-5.4,6.1S1114.3,63,1114.3,59.1z M1123,59.1
			c0-2.7-1.4-4.5-3.4-4.5s-3.4,1.8-3.4,4.5s1.4,4.5,3.4,4.5C1121.7,63.6,1123,61.8,1123,59.1z"/>
		<path class="st7" d="M1128.1,53.3h1.6l0.2,2.1h0.1c0.8-1.5,2-2.4,3.3-2.4c0.5,0,0.9,0.1,1.2,0.2l-0.4,1.7
			c-0.4-0.1-0.7-0.2-1.1-0.2c-1,0-2.2,0.7-3,2.7v7.5h-2V53.3H1128.1z"/>
		<path class="st7" d="M1136.8,61.3v-6.5h-1.7v-1.5l1.8-0.1l0.2-3.3h1.6v3.3h3.2v1.6h-3.2v6.5c0,1.4,0.5,2.3,1.8,2.3
			c0.4,0,1-0.2,1.3-0.3l0.4,1.5c-0.7,0.2-1.4,0.4-2.2,0.4C1137.6,65.2,1136.8,63.7,1136.8,61.3z"/>
		<path class="st7" d="M1143.7,59.1c0-3.9,2.5-6.1,5.4-6.1s5.4,2.2,5.4,6.1s-2.5,6.1-5.4,6.1S1143.7,63,1143.7,59.1z M1152.5,59.1
			c0-2.7-1.4-4.5-3.4-4.5s-3.4,1.8-3.4,4.5s1.4,4.5,3.4,4.5S1152.5,61.8,1152.5,59.1z"/>
		<path class="st7" d="M1161.4,58.2h5.5v1.5h-5.5V58.2z"/>
		<path class="st7" d="M953.1,88.9l1.2-1.4c1.1,1.2,2.7,2,4.3,2c2.1,0,3.3-1,3.3-2.6s-1.1-2.1-2.6-2.8l-2.3-1
			c-1.5-0.6-3.2-1.7-3.2-4.1s2.1-4.2,5-4.2c1.9,0,3.5,0.8,4.6,2l-1.1,1.3c-1-0.9-2.1-1.5-3.6-1.5c-1.8,0-2.9,0.9-2.9,2.3
			c0,1.5,1.4,2.1,2.6,2.6l2.2,1c1.8,0.8,3.2,1.9,3.2,4.2c0,2.5-2.1,4.5-5.4,4.5C956.4,91.2,954.4,90.3,953.1,88.9z"/>
		<path class="st7" d="M966,85.1c0-3.9,2.6-6.1,5.6-6.1c1.5,0,2.6,0.6,3.4,1.4l-1,1.3c-0.7-0.6-1.4-1-2.3-1c-2.1,0-3.7,1.8-3.7,4.5
			s1.5,4.5,3.6,4.5c1.1,0,2-0.5,2.7-1.2l0.9,1.3c-1,0.9-2.4,1.5-3.8,1.5C968.3,91.2,966,89,966,85.1z"/>
		<path class="st7" d="M977.8,73.8h2v4.7l-0.1,2.4c1.1-1.1,2.3-1.9,3.9-1.9c2.5,0,3.6,1.6,3.6,4.6V91h-2v-7.1c0-2.2-0.7-3.1-2.2-3.1
			c-1.2,0-2,0.6-3.2,1.8V91h-2V73.8z"/>
		<path class="st7" d="M990,85.1c0-3.9,2.5-6.1,5.4-6.1s5.4,2.2,5.4,6.1s-2.5,6.1-5.4,6.1S990,89,990,85.1z M998.7,85.1
			c0-2.7-1.4-4.5-3.4-4.5s-3.4,1.8-3.4,4.5s1.4,4.5,3.4,4.5C997.4,89.6,998.7,87.8,998.7,85.1z"/>
		<path class="st7" d="M1003,85.1c0-3.9,2.5-6.1,5.4-6.1s5.4,2.2,5.4,6.1s-2.5,6.1-5.4,6.1S1003,89,1003,85.1z M1011.7,85.1
			c0-2.7-1.4-4.5-3.4-4.5s-3.4,1.8-3.4,4.5s1.4,4.5,3.4,4.5C1010.4,89.6,1011.7,87.8,1011.7,85.1z"/>
		<path class="st7" d="M1016.8,88.6V73.8h2v14.9c0,0.6,0.3,0.8,0.6,0.8c0.1,0,0.2,0,0.4,0l0.3,1.5c-0.3,0.1-0.6,0.2-1.1,0.2
			C1017.5,91.2,1016.8,90.3,1016.8,88.6z"/>
		<path class="st7" d="M1026.9,85.1c0-3.9,2.5-6.1,5.4-6.1s5.4,2.2,5.4,6.1s-2.5,6.1-5.4,6.1S1026.9,89,1026.9,85.1z M1035.7,85.1
			c0-2.7-1.4-4.5-3.4-4.5s-3.4,1.8-3.4,4.5s1.4,4.5,3.4,4.5C1034.3,89.6,1035.7,87.8,1035.7,85.1z"/>
		<path class="st7" d="M1039.5,79.4l1.7-0.1h4.4v1.6h-6L1039.5,79.4L1039.5,79.4z M1041.1,77.4c0-2.4,1.1-3.9,3.4-3.9
			c0.7,0,1.4,0.2,1.9,0.4l-0.4,1.5c-0.4-0.2-0.9-0.3-1.3-0.3c-1.1,0-1.6,0.8-1.6,2.3v13.5h-2V77.4z"/>
		<path class="st7" d="M1052.8,75.2h9.1v1.7h-7.1v4.9h6v1.7h-6v5.7h7.3v1.7h-9.3V75.2z"/>
		<path class="st7" d="M1065.2,79.3h1.6l0.2,1.7h0.1c1.1-1.1,2.3-2,3.9-2c2.5,0,3.6,1.6,3.6,4.6V91h-2v-7.1c0-2.2-0.7-3.1-2.2-3.1
			c-1.2,0-2,0.6-3.2,1.8V91h-2V79.3z"/>
		<path class="st7" d="M1077.5,93.2c0-1,0.6-1.9,1.7-2.6v-0.1c-0.6-0.4-1-1-1-1.9c0-1,0.7-1.7,1.3-2.2v-0.1
			c-0.8-0.6-1.5-1.7-1.5-3.1c0-2.6,2-4.2,4.4-4.2c0.6,0,1.2,0.1,1.6,0.3h4.1v1.5h-2.4c0.6,0.5,1,1.4,1,2.4c0,2.5-1.9,4-4.3,4
			c-0.6,0-1.2-0.1-1.7-0.4c-0.4,0.4-0.7,0.7-0.7,1.4c0,0.7,0.5,1.3,2,1.3h2.3c2.7,0,4.1,0.9,4.1,2.8c0,2.2-2.3,4-5.9,4
			C1079.4,96.3,1077.5,95.2,1077.5,93.2z M1086.3,92.6c0-1.1-0.8-1.4-2.4-1.4h-2c-0.4,0-1,0-1.5-0.2c-0.8,0.6-1.2,1.3-1.2,2
			c0,1.3,1.3,2,3.4,2C1084.8,94.9,1086.3,93.8,1086.3,92.6z M1084.8,83.1c0-1.7-1.1-2.7-2.5-2.7s-2.5,1-2.5,2.7s1.1,2.8,2.5,2.8
			C1083.6,85.9,1084.8,84.8,1084.8,83.1z"/>
		<path class="st7" d="M1090.1,75.6c0-0.8,0.6-1.3,1.4-1.3s1.4,0.5,1.4,1.3c0,0.7-0.6,1.3-1.4,1.3S1090.1,76.3,1090.1,75.6z
			 M1090.5,79.3h2V91h-2V79.3z"/>
		<path class="st7" d="M1096.4,79.3h1.6l0.2,1.7h0.1c1.1-1.1,2.3-2,3.9-2c2.5,0,3.6,1.6,3.6,4.6V91h-2v-7.1c0-2.2-0.7-3.1-2.2-3.1
			c-1.2,0-2,0.6-3.2,1.8V91h-2V79.3z"/>
		<path class="st7" d="M1108.6,85.1c0-3.8,2.6-6.1,5.2-6.1c3,0,4.7,2.1,4.7,5.5c0,0.4,0,0.8-0.1,1.1h-7.9c0.1,2.5,1.7,4.1,3.9,4.1
			c1.1,0,2-0.4,2.9-0.9l0.7,1.3c-1,0.7-2.3,1.2-3.9,1.2C1111.1,91.2,1108.6,89,1108.6,85.1z M1116.8,84.2c0-2.3-1.1-3.6-2.9-3.6
			c-1.6,0-3.1,1.3-3.3,3.6H1116.8z"/>
		<path class="st7" d="M1120.5,85.1c0-3.8,2.6-6.1,5.2-6.1c3,0,4.7,2.1,4.7,5.5c0,0.4,0,0.8-0.1,1.1h-7.9c0.1,2.5,1.7,4.1,3.9,4.1
			c1.1,0,2-0.4,2.9-0.9l0.7,1.3c-1,0.7-2.3,1.2-3.9,1.2C1123,91.2,1120.5,89,1120.5,85.1z M1128.7,84.2c0-2.3-1.1-3.6-2.9-3.6
			c-1.6,0-3.1,1.3-3.3,3.6H1128.7z"/>
		<path class="st7" d="M1133.3,79.3h1.6l0.2,2.1h0.1c0.8-1.5,2-2.4,3.3-2.4c0.5,0,0.9,0.1,1.2,0.2l-0.4,1.7
			c-0.4-0.1-0.7-0.2-1.1-0.2c-1,0-2.2,0.7-3,2.7v7.5h-2V79.3H1133.3z"/>
		<path class="st7" d="M1141.3,75.6c0-0.8,0.6-1.3,1.4-1.3s1.4,0.5,1.4,1.3c0,0.7-0.6,1.3-1.4,1.3S1141.3,76.3,1141.3,75.6z
			 M1141.6,79.3h2V91h-2V79.3z"/>
		<path class="st7" d="M1147.5,79.3h1.6l0.2,1.7h0.1c1.1-1.1,2.3-2,3.9-2c2.5,0,3.6,1.6,3.6,4.6V91h-2v-7.1c0-2.2-0.7-3.1-2.2-3.1
			c-1.2,0-2,0.6-3.2,1.8V91h-2V79.3z"/>
		<path class="st7" d="M1159.8,93.2c0-1,0.6-1.9,1.7-2.6v-0.1c-0.6-0.4-1-1-1-1.9c0-1,0.7-1.7,1.3-2.2v-0.1
			c-0.8-0.6-1.5-1.7-1.5-3.1c0-2.6,2-4.2,4.4-4.2c0.6,0,1.2,0.1,1.6,0.3h4.1v1.5h-2.4c0.6,0.5,1,1.4,1,2.4c0,2.5-1.9,4-4.3,4
			c-0.6,0-1.2-0.1-1.7-0.4c-0.4,0.4-0.7,0.7-0.7,1.4c0,0.7,0.5,1.3,2,1.3h2.3c2.7,0,4.1,0.9,4.1,2.8c0,2.2-2.3,4-5.9,4
			C1161.7,96.3,1159.8,95.2,1159.8,93.2z M1168.6,92.6c0-1.1-0.8-1.4-2.4-1.4h-2c-0.4,0-1,0-1.5-0.2c-0.8,0.6-1.2,1.3-1.2,2
			c0,1.3,1.3,2,3.4,2C1167.1,94.9,1168.6,93.8,1168.6,92.6z M1167.1,83.1c0-1.7-1.1-2.7-2.5-2.7s-2.5,1-2.5,2.7s1.1,2.8,2.5,2.8
			C1165.9,85.9,1167.1,84.8,1167.1,83.1z"/>
		<path class="st7" d="M1177.5,84.3c0-4.2,1.2-7.7,3.2-10.9l1.2,0.6c-1.8,3.1-2.8,6.7-2.8,10.3s0.9,7.3,2.8,10.3l-1.2,0.6
			C1178.7,91.9,1177.5,88.5,1177.5,84.3z"/>
		<path class="st7" d="M1185,75.2h2V91h-2V75.2z"/>
		<path class="st7" d="M1190.2,88.9l1.2-1.4c1.1,1.2,2.7,2,4.3,2c2.1,0,3.3-1,3.3-2.6s-1.1-2.1-2.6-2.8l-2.3-1
			c-1.5-0.6-3.2-1.7-3.2-4.1s2.1-4.2,5-4.2c1.9,0,3.5,0.8,4.6,2l-1.1,1.3c-1-0.9-2.1-1.5-3.6-1.5c-1.8,0-2.9,0.9-2.9,2.3
			c0,1.5,1.4,2.1,2.6,2.6l2.2,1c1.8,0.8,3.2,1.9,3.2,4.2c0,2.5-2.1,4.5-5.4,4.5C1193.5,91.2,1191.5,90.3,1190.2,88.9z"/>
		<path class="st7" d="M1204.1,75.2h9.1v1.7h-7.1v4.9h6v1.7h-6v5.7h7.3v1.7h-9.3V75.2z"/>
		<path class="st7" d="M1216.8,75.2h4.5c3.5,0,5.9,1.2,5.9,4.6c0,3.3-2.4,4.9-5.8,4.9h-2.6v6.2h-2V75.2z M1221.1,83.1
			c2.8,0,4.1-1,4.1-3.2c0-2.3-1.4-3-4.2-3h-2.2v6.3h2.3V83.1z"/>
		<path class="st7" d="M1229.1,94.6c1.8-3.1,2.8-6.7,2.8-10.3s-0.9-7.3-2.8-10.3l1.2-0.6c2,3.2,3.2,6.7,3.2,10.9
			c0,4.2-1.2,7.7-3.2,10.9L1229.1,94.6z"/>
	</g>
</g>
<g>
	<g>
		<path class="st7" d="M425.2,99.2h2V115h-2V99.2z"/>
		<path class="st7" d="M431.3,103.3h1.6l0.2,1.7h0.1c1.1-1.1,2.3-2,3.9-2c2.5,0,3.6,1.6,3.6,4.6v7.4h-2v-7.1c0-2.2-0.7-3.1-2.2-3.1
			c-1.2,0-2,0.6-3.2,1.8v8.4h-2V103.3z"/>
		<path class="st7" d="M443.2,103.4l1.7-0.1h4.4v1.6h-6v-1.5H443.2z M444.8,101.4c0-2.4,1.1-3.9,3.4-3.9c0.7,0,1.4,0.2,1.9,0.4
			l-0.4,1.5c-0.4-0.2-0.9-0.3-1.3-0.3c-1.1,0-1.6,0.8-1.6,2.3v13.5h-2V101.4z"/>
		<path class="st7" d="M450.6,109.1c0-3.9,2.5-6.1,5.4-6.1s5.4,2.2,5.4,6.1s-2.5,6.1-5.4,6.1S450.6,113,450.6,109.1z M459.4,109.1
			c0-2.7-1.4-4.5-3.4-4.5s-3.4,1.8-3.4,4.5s1.4,4.5,3.4,4.5S459.4,111.8,459.4,109.1z"/>
		<path class="st7" d="M464.5,103.3h1.6l0.2,2.1h0.1c0.8-1.5,2-2.4,3.3-2.4c0.5,0,0.9,0.1,1.2,0.2l-0.4,1.7
			c-0.4-0.1-0.7-0.2-1.1-0.2c-1,0-2.2,0.7-3,2.7v7.5h-2L464.5,103.3L464.5,103.3z"/>
		<path class="st7" d="M472.8,103.3h1.6l0.2,1.7h0.1c1-1.1,2.2-2,3.6-2c1.8,0,2.7,0.9,3.2,2.2c1.2-1.3,2.4-2.2,3.8-2.2
			c2.4,0,3.5,1.6,3.5,4.6v7.4h-2v-7.1c0-2.2-0.7-3.1-2.2-3.1c-0.9,0-1.8,0.6-2.9,1.8v8.4h-2v-7.1c0-2.2-0.7-3.1-2.2-3.1
			c-0.9,0-1.8,0.6-2.9,1.8v8.4h-2v-11.7H472.8z"/>
		<path class="st7" d="M492,111.9c0-2.5,2.2-3.8,7.2-4.4c0-1.5-0.5-2.9-2.4-2.9c-1.3,0-2.6,0.6-3.5,1.3l-0.8-1.4
			c1.1-0.7,2.7-1.5,4.6-1.5c2.8,0,4.1,1.9,4.1,4.8v7.2h-1.6l-0.2-1.4h-0.1c-1.1,0.9-2.4,1.7-3.9,1.7C493.4,115.2,492,114,492,111.9z
			 M499.1,112.1v-3.2c-3.9,0.5-5.2,1.4-5.2,2.9c0,1.3,0.9,1.9,2,1.9C497.1,113.6,498,113.1,499.1,112.1z"/>
		<path class="st7" d="M505.1,111.3v-6.5h-1.7v-1.5l1.8-0.1l0.2-3.3h1.6v3.3h3.2v1.6H507v6.5c0,1.4,0.5,2.3,1.8,2.3
			c0.4,0,1-0.2,1.3-0.3l0.4,1.5c-0.7,0.2-1.4,0.4-2.2,0.4C506,115.2,505.1,113.7,505.1,111.3z"/>
		<path class="st7" d="M512.5,99.6c0-0.8,0.6-1.3,1.4-1.3s1.4,0.5,1.4,1.3c0,0.7-0.6,1.3-1.4,1.3S512.5,100.3,512.5,99.6z
			 M512.9,103.3h2V115h-2V103.3z"/>
		<path class="st7" d="M517.9,109.1c0-3.9,2.6-6.1,5.6-6.1c1.5,0,2.6,0.6,3.4,1.4l-1,1.3c-0.7-0.6-1.4-1-2.3-1
			c-2.1,0-3.7,1.8-3.7,4.5s1.5,4.5,3.6,4.5c1.1,0,2-0.5,2.7-1.2l0.9,1.3c-1,0.9-2.4,1.5-3.8,1.5C520.3,115.2,517.9,113,517.9,109.1z
			"/>
		<path class="st7" d="M528.5,113.6l1-1.3c1,0.8,2,1.4,3.4,1.4c1.5,0,2.3-0.8,2.3-1.8c0-1.2-1.4-1.7-2.7-2.2
			c-1.6-0.6-3.5-1.4-3.5-3.4c0-1.9,1.5-3.3,4-3.3c1.5,0,2.7,0.6,3.6,1.3l-0.9,1.3c-0.8-0.6-1.6-1-2.7-1c-1.5,0-2.1,0.8-2.1,1.7
			c0,1.1,1.3,1.5,2.6,2c1.7,0.6,3.6,1.3,3.6,3.5c0,1.9-1.5,3.5-4.3,3.5C531.1,115.2,529.5,114.5,528.5,113.6z"/>
		<path class="st7" d="M544.8,99.2h9.1v1.7h-7.1v4.9h6v1.7h-6v5.7h7.3v1.7h-9.3V99.2z"/>
		<path class="st7" d="M557.2,103.3h1.6l0.2,1.7h0.1c1.1-1.1,2.3-2,3.9-2c2.5,0,3.6,1.6,3.6,4.6v7.4h-2v-7.1c0-2.2-0.7-3.1-2.2-3.1
			c-1.2,0-2,0.6-3.2,1.8v8.4h-2L557.2,103.3L557.2,103.3z"/>
		<path class="st7" d="M569.5,117.2c0-1,0.6-1.9,1.7-2.6v-0.1c-0.6-0.4-1-1-1-1.9c0-1,0.7-1.7,1.3-2.2v-0.1
			c-0.8-0.6-1.5-1.7-1.5-3.1c0-2.6,2-4.2,4.4-4.2c0.6,0,1.2,0.1,1.6,0.3h4.1v1.5h-2.4c0.6,0.5,1,1.4,1,2.4c0,2.5-1.9,4-4.3,4
			c-0.6,0-1.2-0.1-1.7-0.4c-0.4,0.4-0.7,0.7-0.7,1.4c0,0.7,0.5,1.3,2,1.3h2.3c2.7,0,4.1,0.9,4.1,2.8c0,2.2-2.3,4-5.9,4
			C571.5,120.3,569.5,119.2,569.5,117.2z M578.3,116.6c0-1.1-0.8-1.4-2.4-1.4h-2c-0.4,0-1,0-1.5-0.2c-0.8,0.6-1.2,1.3-1.2,2
			c0,1.3,1.3,2,3.4,2C576.8,118.9,578.3,117.8,578.3,116.6z M576.8,107.1c0-1.7-1.1-2.7-2.5-2.7s-2.5,1-2.5,2.7s1.1,2.8,2.5,2.8
			S576.8,108.8,576.8,107.1z"/>
		<path class="st7" d="M582.1,99.6c0-0.8,0.6-1.3,1.4-1.3s1.4,0.5,1.4,1.3c0,0.7-0.6,1.3-1.4,1.3S582.1,100.3,582.1,99.6z
			 M582.5,103.3h2V115h-2V103.3z"/>
		<path class="st7" d="M588.4,103.3h1.6l0.2,1.7h0.1c1.1-1.1,2.3-2,3.9-2c2.5,0,3.6,1.6,3.6,4.6v7.4h-2v-7.1c0-2.2-0.7-3.1-2.2-3.1
			c-1.2,0-2,0.6-3.2,1.8v8.4h-2L588.4,103.3L588.4,103.3z"/>
		<path class="st7" d="M600.6,109.1c0-3.8,2.6-6.1,5.2-6.1c3,0,4.7,2.1,4.7,5.5c0,0.4,0,0.8-0.1,1.1h-7.9c0.1,2.5,1.7,4.1,3.9,4.1
			c1.1,0,2-0.4,2.9-0.9l0.7,1.3c-1,0.7-2.3,1.2-3.9,1.2C603.1,115.2,600.6,113,600.6,109.1z M608.8,108.2c0-2.3-1.1-3.6-2.9-3.6
			c-1.6,0-3.1,1.3-3.3,3.6H608.8z"/>
		<path class="st7" d="M612.5,109.1c0-3.8,2.6-6.1,5.2-6.1c3,0,4.7,2.1,4.7,5.5c0,0.4,0,0.8-0.1,1.1h-7.9c0.1,2.5,1.7,4.1,3.9,4.1
			c1.1,0,2-0.4,2.9-0.9l0.7,1.3c-1,0.7-2.3,1.2-3.9,1.2C615,115.2,612.5,113,612.5,109.1z M620.7,108.2c0-2.3-1.1-3.6-2.9-3.6
			c-1.6,0-3.1,1.3-3.3,3.6H620.7z"/>
		<path class="st7" d="M625.3,103.3h1.6l0.2,2.1h0.1c0.8-1.5,2-2.4,3.3-2.4c0.5,0,0.9,0.1,1.2,0.2l-0.4,1.7
			c-0.4-0.1-0.7-0.2-1.1-0.2c-1,0-2.2,0.7-3,2.7v7.5h-2v-11.6H625.3z"/>
		<path class="st7" d="M633.3,99.6c0-0.8,0.6-1.3,1.4-1.3s1.4,0.5,1.4,1.3c0,0.7-0.6,1.3-1.4,1.3S633.3,100.3,633.3,99.6z
			 M633.6,103.3h2V115h-2V103.3z"/>
		<path class="st7" d="M639.5,103.3h1.6l0.2,1.7h0.1c1.1-1.1,2.3-2,3.9-2c2.5,0,3.6,1.6,3.6,4.6v7.4h-2v-7.1c0-2.2-0.7-3.1-2.2-3.1
			c-1.2,0-2,0.6-3.2,1.8v8.4h-2L639.5,103.3L639.5,103.3z"/>
		<path class="st7" d="M651.8,117.2c0-1,0.6-1.9,1.7-2.6v-0.1c-0.6-0.4-1-1-1-1.9c0-1,0.7-1.7,1.3-2.2v-0.1
			c-0.8-0.6-1.5-1.7-1.5-3.1c0-2.6,2-4.2,4.4-4.2c0.6,0,1.2,0.1,1.6,0.3h4.1v1.5H660c0.6,0.5,1,1.4,1,2.4c0,2.5-1.9,4-4.3,4
			c-0.6,0-1.2-0.1-1.7-0.4c-0.4,0.4-0.7,0.7-0.7,1.4c0,0.7,0.5,1.3,2,1.3h2.3c2.7,0,4.1,0.9,4.1,2.8c0,2.2-2.3,4-5.9,4
			C653.8,120.3,651.8,119.2,651.8,117.2z M660.6,116.6c0-1.1-0.8-1.4-2.4-1.4h-2c-0.4,0-1,0-1.5-0.2c-0.8,0.6-1.2,1.3-1.2,2
			c0,1.3,1.3,2,3.4,2C659.1,118.9,660.6,117.8,660.6,116.6z M659.1,107.1c0-1.7-1.1-2.7-2.5-2.7s-2.5,1-2.5,2.7s1.1,2.8,2.5,2.8
			C657.9,109.9,659.1,108.8,659.1,107.1z"/>
		<path class="st7" d="M425.2,125.2h4.5c3.5,0,5.9,1.2,5.9,4.6c0,3.3-2.4,4.9-5.8,4.9h-2.6v6.2h-2V125.2z M429.5,133.1
			c2.8,0,4.1-1,4.1-3.2c0-2.3-1.4-3-4.2-3h-2.2v6.3h2.3V133.1z"/>
		<path class="st7" d="M437.7,135.1c0-3.9,2.5-6.1,5.4-6.1s5.4,2.2,5.4,6.1c0,3.9-2.5,6.1-5.4,6.1
			C440.3,141.2,437.7,139,437.7,135.1z M446.5,135.1c0-2.7-1.4-4.5-3.4-4.5s-3.4,1.8-3.4,4.5s1.4,4.5,3.4,4.5
			S446.5,137.8,446.5,135.1z"/>
		<path class="st7" d="M451.6,138.6v-14.8h2v14.9c0,0.6,0.3,0.8,0.6,0.8c0.1,0,0.2,0,0.4,0l0.3,1.5c-0.3,0.1-0.6,0.2-1.1,0.2
			C452.2,141.2,451.6,140.3,451.6,138.6z"/>
		<path class="st7" d="M456.6,145.7l0.4-1.6c0.2,0.1,0.6,0.2,0.9,0.2c1.3,0,2.1-1.1,2.6-2.5l0.3-0.9l-4.7-11.7h2l2.4,6.5
			c0.4,1,0.8,2.2,1.1,3.3h0.1c0.3-1.1,0.7-2.3,1-3.3l2.1-6.5h1.9l-4.4,12.6c-0.8,2.3-2,4.1-4.4,4.1
			C457.4,146,456.9,145.9,456.6,145.7z"/>
		<path class="st7" d="M469.3,137.3v-6.5h-1.7v-1.5l1.8-0.1l0.2-3.3h1.6v3.3h3.2v1.6h-3.2v6.5c0,1.4,0.5,2.3,1.8,2.3
			c0.4,0,1-0.2,1.3-0.3l0.4,1.5c-0.7,0.2-1.4,0.4-2.2,0.4C470.1,141.2,469.3,139.7,469.3,137.3z"/>
		<path class="st7" d="M476.2,135.1c0-3.8,2.6-6.1,5.2-6.1c3,0,4.7,2.1,4.7,5.5c0,0.4,0,0.8-0.1,1.1h-7.9c0.1,2.5,1.7,4.1,3.9,4.1
			c1.1,0,2-0.4,2.9-0.9l0.7,1.3c-1,0.7-2.3,1.2-3.9,1.2C478.7,141.2,476.2,139,476.2,135.1z M484.3,134.2c0-2.3-1.1-3.6-2.9-3.6
			c-1.6,0-3.1,1.3-3.3,3.6H484.3z"/>
		<path class="st7" d="M488.1,135.1c0-3.9,2.6-6.1,5.6-6.1c1.5,0,2.6,0.6,3.4,1.4l-1,1.3c-0.7-0.6-1.4-1-2.3-1
			c-2.1,0-3.7,1.8-3.7,4.5s1.5,4.5,3.6,4.5c1.1,0,2-0.5,2.7-1.2l0.9,1.3c-1,0.9-2.4,1.5-3.8,1.5C490.4,141.2,488.1,139,488.1,135.1z
			"/>
		<path class="st7" d="M499.9,123.8h2v4.7l-0.1,2.4c1.1-1.1,2.3-1.9,3.9-1.9c2.5,0,3.6,1.6,3.6,4.6v7.4h-2v-7.1
			c0-2.2-0.7-3.1-2.2-3.1c-1.2,0-2,0.6-3.2,1.8v8.4h-2L499.9,123.8L499.9,123.8z"/>
		<path class="st7" d="M512.9,129.3h1.6l0.2,1.7h0.1c1.1-1.1,2.3-2,3.9-2c2.5,0,3.6,1.6,3.6,4.6v7.4h-2v-7.1c0-2.2-0.7-3.1-2.2-3.1
			c-1.2,0-2,0.6-3.2,1.8v8.4h-2L512.9,129.3L512.9,129.3z"/>
		<path class="st7" d="M525.7,125.6c0-0.8,0.6-1.3,1.4-1.3s1.4,0.5,1.4,1.3c0,0.7-0.6,1.3-1.4,1.3S525.7,126.3,525.7,125.6z
			 M526.1,129.3h2V141h-2V129.3z"/>
		<path class="st7" d="M531.1,135.1c0-3.9,2.6-6.1,5.6-6.1c1.5,0,2.6,0.6,3.4,1.4l-1,1.3c-0.7-0.6-1.4-1-2.3-1
			c-2.1,0-3.7,1.8-3.7,4.5s1.5,4.5,3.6,4.5c1.1,0,2-0.5,2.7-1.2l0.9,1.3c-1,0.9-2.4,1.5-3.8,1.5C533.5,141.2,531.1,139,531.1,135.1z
			"/>
		<path class="st7" d="M546.9,135.1c0-3.9,2.5-6.1,5.4-6.1s5.4,2.2,5.4,6.1c0,3.9-2.5,6.1-5.4,6.1
			C549.4,141.2,546.9,139,546.9,135.1z M555.6,135.1c0-2.7-1.4-4.5-3.4-4.5s-3.4,1.8-3.4,4.5s1.4,4.5,3.4,4.5
			C554.3,139.6,555.6,137.8,555.6,135.1z"/>
		<path class="st7" d="M559.5,129.4l1.7-0.1h4.4v1.6h-6v-1.5H559.5z M561.1,127.4c0-2.4,1.1-3.9,3.4-3.9c0.7,0,1.4,0.2,1.9,0.4
			l-0.4,1.5c-0.4-0.2-0.9-0.3-1.3-0.3c-1.1,0-1.6,0.8-1.6,2.3v13.5h-2L561.1,127.4L561.1,127.4z"/>
		<path class="st7" d="M572.7,125.2h4.5c3.5,0,5.9,1.2,5.9,4.6c0,3.3-2.4,4.9-5.8,4.9h-2.6v6.2h-2L572.7,125.2L572.7,125.2z
			 M577.1,133.1c2.8,0,4.1-1,4.1-3.2c0-2.3-1.4-3-4.2-3h-2.2v6.3h2.3V133.1z"/>
		<path class="st7" d="M585.3,135.1c0-3.9,2.5-6.1,5.4-6.1s5.4,2.2,5.4,6.1c0,3.9-2.5,6.1-5.4,6.1
			C587.8,141.2,585.3,139,585.3,135.1z M594,135.1c0-2.7-1.4-4.5-3.4-4.5s-3.4,1.8-3.4,4.5s1.4,4.5,3.4,4.5
			C592.7,139.6,594,137.8,594,135.1z"/>
		<path class="st7" d="M599.1,129.3h1.6l0.2,2.1h0.1c0.8-1.5,2-2.4,3.3-2.4c0.5,0,0.9,0.1,1.2,0.2l-0.4,1.7
			c-0.4-0.1-0.7-0.2-1.1-0.2c-1,0-2.2,0.7-3,2.7v7.5h-2v-11.6H599.1z"/>
		<path class="st7" d="M607.8,137.3v-6.5h-1.7v-1.5l1.8-0.1l0.2-3.3h1.6v3.3h3.2v1.6h-3.2v6.5c0,1.4,0.5,2.3,1.8,2.3
			c0.4,0,1-0.2,1.3-0.3l0.4,1.5c-0.7,0.2-1.4,0.4-2.2,0.4C608.6,141.2,607.8,139.7,607.8,137.3z"/>
		<path class="st7" d="M614.7,135.1c0-3.9,2.5-6.1,5.4-6.1s5.4,2.2,5.4,6.1c0,3.9-2.5,6.1-5.4,6.1
			C617.2,141.2,614.7,139,614.7,135.1z M623.5,135.1c0-2.7-1.4-4.5-3.4-4.5s-3.4,1.8-3.4,4.5s1.4,4.5,3.4,4.5
			S623.5,137.8,623.5,135.1z"/>
		<path class="st7" d="M632.4,134.2h5.5v1.5h-5.5V134.2z"/>
		<path class="st7" d="M424.1,164.9l1.2-1.4c1.1,1.2,2.7,2,4.3,2c2.1,0,3.3-1,3.3-2.6s-1.1-2.1-2.6-2.8l-2.3-1
			c-1.5-0.6-3.2-1.7-3.2-4.1c0-2.4,2.1-4.2,5-4.2c1.9,0,3.5,0.8,4.6,2l-1.1,1.3c-1-0.9-2.1-1.5-3.6-1.5c-1.8,0-2.9,0.9-2.9,2.3
			c0,1.5,1.4,2.1,2.6,2.6l2.2,1c1.8,0.8,3.2,1.9,3.2,4.2c0,2.5-2.1,4.5-5.4,4.5C427.4,167.2,425.4,166.3,424.1,164.9z"/>
		<path class="st7" d="M437,161.1c0-3.9,2.6-6.1,5.6-6.1c1.5,0,2.6,0.6,3.4,1.4l-1,1.3c-0.7-0.6-1.4-1-2.3-1c-2.1,0-3.7,1.8-3.7,4.5
			s1.5,4.5,3.6,4.5c1.1,0,2-0.5,2.7-1.2l0.9,1.3c-1,0.9-2.4,1.5-3.8,1.5C439.3,167.2,437,165,437,161.1z"/>
		<path class="st7" d="M448.8,149.8h2v4.7l-0.1,2.4c1.1-1.1,2.3-1.9,3.9-1.9c2.5,0,3.6,1.6,3.6,4.6v7.4h-2v-7.1
			c0-2.2-0.7-3.1-2.2-3.1c-1.2,0-2,0.6-3.2,1.8v8.4h-2L448.8,149.8L448.8,149.8z"/>
		<path class="st7" d="M461,161.1c0-3.9,2.5-6.1,5.4-6.1s5.4,2.2,5.4,6.1c0,3.9-2.5,6.1-5.4,6.1C463.5,167.2,461,165,461,161.1z
			 M469.7,161.1c0-2.7-1.4-4.5-3.4-4.5s-3.4,1.8-3.4,4.5s1.4,4.5,3.4,4.5C468.4,165.6,469.7,163.8,469.7,161.1z"/>
		<path class="st7" d="M474,161.1c0-3.9,2.5-6.1,5.4-6.1s5.4,2.2,5.4,6.1c0,3.9-2.5,6.1-5.4,6.1C476.5,167.2,474,165,474,161.1z
			 M482.7,161.1c0-2.7-1.4-4.5-3.4-4.5s-3.4,1.8-3.4,4.5s1.4,4.5,3.4,4.5C481.4,165.6,482.7,163.8,482.7,161.1z"/>
		<path class="st7" d="M487.8,164.6v-14.8h2v14.9c0,0.6,0.3,0.8,0.6,0.8c0.1,0,0.2,0,0.4,0l0.3,1.5c-0.3,0.1-0.6,0.2-1.1,0.2
			C488.5,167.2,487.8,166.3,487.8,164.6z"/>
		<path class="st7" d="M497.9,161.1c0-3.9,2.5-6.1,5.4-6.1s5.4,2.2,5.4,6.1c0,3.9-2.5,6.1-5.4,6.1
			C500.4,167.2,497.9,165,497.9,161.1z M506.7,161.1c0-2.7-1.4-4.5-3.4-4.5s-3.4,1.8-3.4,4.5s1.4,4.5,3.4,4.5
			C505.3,165.6,506.7,163.8,506.7,161.1z"/>
		<path class="st7" d="M510.5,155.4l1.7-0.1h4.4v1.6h-6v-1.5H510.5z M512.1,153.4c0-2.4,1.1-3.9,3.4-3.9c0.7,0,1.4,0.2,1.9,0.4
			l-0.4,1.5c-0.4-0.2-0.9-0.3-1.3-0.3c-1.1,0-1.6,0.8-1.6,2.3v13.5h-2L512.1,153.4L512.1,153.4z"/>
		<path class="st7" d="M523.8,151.2h9.1v1.7h-7.1v4.9h6v1.7h-6v5.7h7.3v1.7h-9.3V151.2z"/>
		<path class="st7" d="M536.2,155.3h1.6l0.2,1.7h0.1c1.1-1.1,2.3-2,3.9-2c2.5,0,3.6,1.6,3.6,4.6v7.4h-2v-7.1c0-2.2-0.7-3.1-2.2-3.1
			c-1.2,0-2,0.6-3.2,1.8v8.4h-2L536.2,155.3L536.2,155.3z"/>
		<path class="st7" d="M548.5,169.2c0-1,0.6-1.9,1.7-2.6v-0.1c-0.6-0.4-1-1-1-1.9c0-1,0.7-1.7,1.3-2.2v-0.1
			c-0.8-0.6-1.5-1.7-1.5-3.1c0-2.6,2-4.2,4.4-4.2c0.6,0,1.2,0.1,1.6,0.3h4.1v1.5h-2.4c0.6,0.5,1,1.4,1,2.4c0,2.5-1.9,4-4.3,4
			c-0.6,0-1.2-0.1-1.7-0.4c-0.4,0.4-0.7,0.7-0.7,1.4s0.5,1.3,2,1.3h2.3c2.7,0,4.1,0.9,4.1,2.8c0,2.2-2.3,4-5.9,4
			C550.4,172.3,548.5,171.2,548.5,169.2z M557.3,168.6c0-1.1-0.8-1.4-2.4-1.4h-2c-0.4,0-1,0-1.5-0.2c-0.8,0.6-1.2,1.3-1.2,2
			c0,1.3,1.3,2,3.4,2C555.8,170.9,557.3,169.8,557.3,168.6z M555.8,159.1c0-1.7-1.1-2.7-2.5-2.7s-2.5,1-2.5,2.7s1.1,2.8,2.5,2.8
			C554.6,161.9,555.8,160.8,555.8,159.1z"/>
		<path class="st7" d="M561.1,151.6c0-0.8,0.6-1.3,1.4-1.3s1.4,0.5,1.4,1.3c0,0.7-0.6,1.3-1.4,1.3S561.1,152.3,561.1,151.6z
			 M561.5,155.3h2V167h-2V155.3z"/>
		<path class="st7" d="M567.4,155.3h1.6l0.2,1.7h0.1c1.1-1.1,2.3-2,3.9-2c2.5,0,3.6,1.6,3.6,4.6v7.4h-2v-7.1c0-2.2-0.7-3.1-2.2-3.1
			c-1.2,0-2,0.6-3.2,1.8v8.4h-2L567.4,155.3L567.4,155.3z"/>
		<path class="st7" d="M579.6,161.1c0-3.8,2.6-6.1,5.2-6.1c3,0,4.7,2.1,4.7,5.5c0,0.4,0,0.8-0.1,1.1h-7.9c0.1,2.5,1.7,4.1,3.9,4.1
			c1.1,0,2-0.4,2.9-0.9l0.7,1.3c-1,0.7-2.3,1.2-3.9,1.2C582.1,167.2,579.6,165,579.6,161.1z M587.8,160.2c0-2.3-1.1-3.6-2.9-3.6
			c-1.6,0-3.1,1.3-3.3,3.6H587.8z"/>
		<path class="st7" d="M591.5,161.1c0-3.8,2.6-6.1,5.2-6.1c3,0,4.7,2.1,4.7,5.5c0,0.4,0,0.8-0.1,1.1h-7.9c0.1,2.5,1.7,4.1,3.9,4.1
			c1.1,0,2-0.4,2.9-0.9l0.7,1.3c-1,0.7-2.3,1.2-3.9,1.2C594,167.2,591.5,165,591.5,161.1z M599.7,160.2c0-2.3-1.1-3.6-2.9-3.6
			c-1.6,0-3.1,1.3-3.3,3.6H599.7z"/>
		<path class="st7" d="M604.3,155.3h1.6l0.2,2.1h0.1c0.8-1.5,2-2.4,3.3-2.4c0.5,0,0.9,0.1,1.2,0.2l-0.4,1.7
			c-0.4-0.1-0.7-0.2-1.1-0.2c-1,0-2.2,0.7-3,2.7v7.5h-2v-11.6H604.3z"/>
		<path class="st7" d="M612.3,151.6c0-0.8,0.6-1.3,1.4-1.3s1.4,0.5,1.4,1.3c0,0.7-0.6,1.3-1.4,1.3S612.3,152.3,612.3,151.6z
			 M612.6,155.3h2V167h-2V155.3z"/>
		<path class="st7" d="M618.5,155.3h1.6l0.2,1.7h0.1c1.1-1.1,2.3-2,3.9-2c2.5,0,3.6,1.6,3.6,4.6v7.4h-2v-7.1c0-2.2-0.7-3.1-2.2-3.1
			c-1.2,0-2,0.6-3.2,1.8v8.4h-2L618.5,155.3L618.5,155.3z"/>
		<path class="st7" d="M630.8,169.2c0-1,0.6-1.9,1.7-2.6v-0.1c-0.6-0.4-1-1-1-1.9c0-1,0.7-1.7,1.3-2.2v-0.1
			c-0.8-0.6-1.5-1.7-1.5-3.1c0-2.6,2-4.2,4.4-4.2c0.6,0,1.2,0.1,1.6,0.3h4.1v1.5H639c0.6,0.5,1,1.4,1,2.4c0,2.5-1.9,4-4.3,4
			c-0.6,0-1.2-0.1-1.7-0.4c-0.4,0.4-0.7,0.7-0.7,1.4s0.5,1.3,2,1.3h2.3c2.7,0,4.1,0.9,4.1,2.8c0,2.2-2.3,4-5.9,4
			C632.7,172.3,630.8,171.2,630.8,169.2z M639.6,168.6c0-1.1-0.8-1.4-2.4-1.4h-2c-0.4,0-1,0-1.5-0.2c-0.8,0.6-1.2,1.3-1.2,2
			c0,1.3,1.3,2,3.4,2C638.1,170.9,639.6,169.8,639.6,168.6z M638.1,159.1c0-1.7-1.1-2.7-2.5-2.7s-2.5,1-2.5,2.7s1.1,2.8,2.5,2.8
			C636.9,161.9,638.1,160.8,638.1,159.1z"/>
		<path class="st7" d="M648.5,160.3c0-4.2,1.2-7.7,3.2-10.9l1.2,0.6c-1.8,3.1-2.8,6.7-2.8,10.3s0.9,7.3,2.8,10.3l-1.2,0.6
			C649.7,167.9,648.5,164.5,648.5,160.3z"/>
		<path class="st7" d="M656,151.2h2V167h-2V151.2z"/>
		<path class="st7" d="M661.2,164.9l1.2-1.4c1.1,1.2,2.7,2,4.3,2c2.1,0,3.3-1,3.3-2.6s-1.1-2.1-2.6-2.8l-2.3-1
			c-1.5-0.6-3.2-1.7-3.2-4.1c0-2.4,2.1-4.2,5-4.2c1.9,0,3.5,0.8,4.6,2l-1.1,1.3c-1-0.9-2.1-1.5-3.6-1.5c-1.8,0-2.9,0.9-2.9,2.3
			c0,1.5,1.4,2.1,2.6,2.6l2.2,1c1.8,0.8,3.2,1.9,3.2,4.2c0,2.5-2.1,4.5-5.4,4.5C664.5,167.2,662.5,166.3,661.2,164.9z"/>
		<path class="st7" d="M675.1,151.2h9.1v1.7h-7.1v4.9h6v1.7h-6v5.7h7.3v1.7h-9.3V151.2z"/>
		<path class="st7" d="M687.8,151.2h4.5c3.5,0,5.9,1.2,5.9,4.6c0,3.3-2.4,4.9-5.8,4.9h-2.6v6.2h-2L687.8,151.2L687.8,151.2z
			 M692.1,159.1c2.8,0,4.1-1,4.1-3.2c0-2.3-1.4-3-4.2-3h-2.2v6.3h2.3V159.1z"/>
		<path class="st7" d="M700.1,170.6c1.8-3.1,2.8-6.7,2.8-10.3s-0.9-7.3-2.8-10.3l1.2-0.6c2,3.2,3.2,6.7,3.2,10.9s-1.2,7.7-3.2,10.9
			L700.1,170.6z"/>
	</g>
</g>
</svg>
