<?xml version="1.0" encoding="utf-8"?>
<!-- Generator: Adobe Illustrator 23.0.1, SVG Export Plug-In . SVG Version: 6.00 Build 0)  -->
<svg width="186" height="80" viewBox="0 0 186 164" fill="none"
    xmlns="http://www.w3.org/2000/svg">
    <path fill-rule="evenodd" clip-rule="evenodd" d="M75.9667 20.2543C91.2731 15.302 101.321 25.6226 114.437 29.5806C124.869 32.7312 134.823 31.0596 147.078 33.854C148.428 44.9206 144.31 54.3505 139.306 61.0591C137.735 63.1659 134.652 66.2245 132.698 66.8874C127.781 68.559 122.813 66.3851 118.709 68.8218C115.185 70.9286 114.455 76.9437 113.272 80.0943C112.11 75.1771 114.785 68.2116 116.764 67.6684C121.046 64.8317 126.472 66.0026 130.762 64.5499C139.232 61.6884 142.79 46.8404 143.971 36.9622C130.32 36.3928 118.693 36.6396 107.829 32.2991C100.983 29.5631 93.9244 25.1729 87.2318 24.5276C83.4695 24.1714 79.0443 26.6256 75.1871 26.0825C71.9605 25.6241 67.4828 20.4762 64.6971 18.3096C60.6866 15.2086 57.4177 12.6186 53.8159 10.928C54.7591 25.7584 61.6034 38.8485 60.8063 54.8411C60.3143 64.8215 56.1256 72.4236 52.2611 80.0928C48.4038 87.7636 44.6677 95.6883 38.6628 100.3C42.5026 85.0188 54.4525 73.1799 54.5985 54.8411C54.724 37.8879 46.8241 23.0574 47.9877 5.09973C48.998 4.6924 50.1529 3.21344 51.4785 3.54632C60.2953 5.7465 69.5282 15.0465 75.9667 20.2543Z" fill="#017480"/>
    <path fill-rule="evenodd" clip-rule="evenodd" d="M104.338 38.5157C104.482 41.6751 99.3176 42.0138 97.7291 40.0705C97.3977 34.4307 102.639 34.9475 104.338 38.5157Z" fill="#017480"/>
    <path d="M113.306 79.9921C113.306 79.9921 116.941 71.5242 107.394 61.4679C107.394 61.4679 106.909 59.7087 103.639 62.5366C103.639 62.5366 102.001 63.3017 101.567 69.4073C101.567 69.4073 102.655 78.0211 92.844 83.261C92.844 83.261 81.0634 87.2964 79.0998 98.2009C79.0998 98.2009 64.592 106.492 70.2654 113.253C70.2654 113.253 74.0877 121.645 84.4418 123.498C84.4418 123.498 75.7608 118.937 72.9912 112.491C72.9912 112.491 70.0435 110.198 75.6148 105.399L82.0445 100.385C82.0445 100.385 83.4636 93.183 90.6584 89.59C90.6584 89.59 103.968 85.3327 104.944 75.8458C104.944 75.8458 106.584 67.556 106.252 66.5793C106.257 66.5793 111.209 73.3404 113.306 79.9921Z" fill="#017480"/>
    <path d="M86.439 96.9453C86.439 96.9453 94.1433 99.0433 87.1018 102.575C87.1018 102.576 82.3963 102.331 86.439 96.9453Z" fill="#017480"/>
    <path fill-rule="evenodd" clip-rule="evenodd" d="M131.976 35.2453C131.976 35.2453 128.917 51.8 143.858 47.8069C143.858 47.8069 144.708 41.8867 144.879 41.8356C145.048 41.7758 145.216 36.4337 145.216 36.4337C145.216 36.4337 142.584 34.3095 141.734 34.2262C140.884 34.1416 140.46 33.9707 139.356 34.2262" fill="#017480"/>
    <path d="M4.15199 154.498H8.1044V147.126H12.2805C17.3196 147.126 20.0256 144.1 20.0256 139.903C20.0256 135.737 17.3516 132.68 12.3338 132.68H4.15199V154.498ZM8.1044 143.876V135.982H11.7266C14.6882 135.982 15.9986 137.58 15.9986 139.903C15.9986 142.225 14.6882 143.876 11.7479 143.876H8.1044ZM30.2981 154.818C34.112 154.818 36.7328 152.953 37.4146 150.109L33.8137 149.704C33.2917 151.089 32.0133 151.813 30.3514 151.813C27.8585 151.813 26.2072 150.173 26.1752 147.371H37.5744V146.188C37.5744 140.446 34.1227 137.921 30.0957 137.921C25.4082 137.921 22.3507 141.362 22.3507 146.412C22.3507 151.547 25.3656 154.818 30.2981 154.818ZM26.1859 144.771C26.3031 142.683 27.8478 140.925 30.149 140.925C32.3649 140.925 33.8564 142.545 33.8777 144.771H26.1859ZM49.0082 138.134H45.7802V134.214H41.9237V138.134H39.6012V141.117H41.9237V150.215C41.9023 153.294 44.1396 154.807 47.0373 154.722C48.1346 154.69 48.891 154.477 49.3065 154.338L48.6566 151.323C48.4435 151.376 48.0067 151.472 47.5273 151.472C46.5579 151.472 45.7802 151.131 45.7802 149.576V141.117H49.0082V138.134ZM71.0794 140.041C70.4082 135.194 66.6795 132.381 61.8429 132.381C56.1433 132.381 51.85 136.536 51.85 143.589C51.85 150.631 56.09 154.796 61.8429 154.796C67.0311 154.796 70.4721 151.44 71.0794 147.275L67.095 147.254C66.5943 149.81 64.5062 151.249 61.8961 151.249C58.3592 151.249 55.8237 148.596 55.8237 143.589C55.8237 138.667 58.3379 135.929 61.9068 135.929C64.5595 135.929 66.6369 137.431 67.095 140.041H71.0794ZM79.2372 154.828C81.8047 154.828 83.3388 153.624 84.0419 152.25H84.1697V154.498H87.8771V143.546C87.8771 139.221 84.3509 137.921 81.2294 137.921C77.7884 137.921 75.1463 139.455 74.294 142.438L77.8949 142.95C78.2784 141.831 79.3651 140.872 81.2507 140.872C83.0405 140.872 84.0206 141.788 84.0206 143.397V143.461C84.0206 144.569 82.8594 144.622 79.9723 144.931C76.7976 145.272 73.7614 146.22 73.7614 149.906C73.7614 153.124 76.1158 154.828 79.2372 154.828ZM80.2386 151.994C78.63 151.994 77.4794 151.259 77.4794 149.842C77.4794 148.362 78.7685 147.744 80.4943 147.499C81.5064 147.36 83.5305 147.104 84.0312 146.7V148.628C84.0312 150.45 82.5611 151.994 80.2386 151.994ZM99.9261 138.134H96.6982V134.214H92.8416V138.134H90.5192V141.117H92.8416V150.215C92.8203 153.294 95.0575 154.807 97.9553 154.722C99.0526 154.69 99.8089 154.477 100.224 154.338L99.5746 151.323C99.3615 151.376 98.9247 151.472 98.4453 151.472C97.4759 151.472 96.6982 151.131 96.6982 149.576V141.117H99.9261V138.134ZM110.113 154.818C114.226 154.818 116.846 152.378 117.123 148.905H113.437C113.107 150.663 111.839 151.675 110.145 151.675C107.738 151.675 106.182 149.661 106.182 146.316C106.182 143.014 107.77 141.032 110.145 141.032C111.999 141.032 113.139 142.225 113.437 143.802H117.123C116.857 140.254 114.087 137.921 110.092 137.921C105.298 137.921 102.273 141.384 102.273 146.38C102.273 151.334 105.224 154.818 110.113 154.818ZM124.147 144.91C124.147 142.545 125.617 141.181 127.684 141.181C129.708 141.181 130.901 142.47 130.901 144.675V154.498H134.757V144.079C134.757 140.126 132.52 137.921 129.122 137.921C126.608 137.921 125.01 139.061 124.253 140.915H124.061V132.68H120.29V154.498H124.147V144.91ZM145.933 154.818C149.747 154.818 152.368 152.953 153.049 150.109L149.449 149.704C148.926 151.089 147.648 151.813 145.986 151.813C143.493 151.813 141.842 150.173 141.81 147.371H153.209V146.188C153.209 140.446 149.757 137.921 145.73 137.921C141.043 137.921 137.985 141.362 137.985 146.412C137.985 151.547 141 154.818 145.933 154.818ZM141.821 144.771C141.938 142.683 143.483 140.925 145.784 140.925C148 140.925 149.491 142.545 149.512 144.771H141.821ZM156.472 154.498H160.328V144.878C160.328 142.8 161.894 141.33 164.014 141.33C164.664 141.33 165.474 141.447 165.804 141.554V138.006C165.453 137.943 164.845 137.9 164.419 137.9C162.544 137.9 160.978 138.965 160.382 140.862H160.211V138.134H156.472V154.498Z" fill="#017480"/>
</svg>