<?xml version="1.0" encoding="utf-8"?>
<!-- Generator: Adobe Illustrator 23.0.1, SVG Export Plug-In . SVG Version: 6.00 Build 0)  -->
<svg version="1.1" id="Capa_1" xmlns="http://www.w3.org/2000/svg" xmlns:xlink="http://www.w3.org/1999/xlink" x="0px" y="0px"
	 viewBox="0 0 529 562" style="enable-background:new 0 0 529 562;" xml:space="preserve">
<style type="text/css">
	.st0{fill:#E05C03;}
</style>
<g>
	<path class="st0" d="M435.5,224.2V204c0-48.3-17.1-93.2-48.1-126.5c-31.8-34.2-75.4-52.9-123-52.9h-16.6
		c-47.6,0-91.3,18.7-123,52.9c-31,33.3-48.1,78.2-48.1,126.5v20.2C39.1,226.7,9.2,258,9.2,296.3v31.5c0,39.8,32.4,72.2,72.2,72.2
		h40.7c7.3,0,13.2-6,13.2-13.2V237.2c0-7.3-6-13.2-13.2-13.2h-19v-20c0-87.2,62.5-145,144.9-145l24,0.1
		c82.5,0,136.9,57.6,136.9,144.8v20h-19c-7.3,0-13.2,6-13.2,13.2v149.5c0,7.3,6,13.2,13.2,13.2h18.5c-5.4,69-52.9,85-75,88.6
		c-6.1-18.6-23.6-32.1-44.2-32.1h-33.1c-25.6,0-46.4,20.8-46.4,46.4s20.8,46.5,46.4,46.5h33.2c21.4,0,39.4-14.6,44.8-34.2
		c10.8-1.5,27.9-5.4,44.9-15.3c23.9-14,52.3-42.6,56-100.1c37.8-2.3,67.8-33.7,67.8-72.1v-31.5C502.9,258,473.1,226.6,435.5,224.2z
		 M102,369.3H79.5c-20.7,0-37.5-19.5-37.5-43.6v-30c0-24,16.8-43.6,37.5-43.6H102V369.3z M287,519.7h-30c-10,0-18.1-8.1-18.1-18.1
		c0-10,8.1-18.1,18.1-18.1h30c10,0,18.1,8.1,18.1,18.1C305,511.7,296.9,519.7,287,519.7z M472,325.7c0,24-17.6,43.6-39.4,43.6H409
		V252.1h23.6c21.7,0,39.4,19.5,39.4,43.6V325.7z"/>
</g>
</svg>
