<?xml version="1.0" encoding="utf-8"?>
<!-- Generator: Adobe Illustrator 23.0.1, SVG Export Plug-In . SVG Version: 6.00 Build 0)  -->
<svg version="1.1" id="Layer_1" xmlns="http://www.w3.org/2000/svg" xmlns:xlink="http://www.w3.org/1999/xlink" x="0px" y="0px"
	 viewBox="0 0 24 24" style="enable-background:new 0 0 24 24;" xml:space="preserve">
<style type="text/css">
	.st0{fill:none;stroke:#000000;stroke-width:1.5;stroke-linecap:round;stroke-linejoin:round;}
</style>
<g id="ic-devices-laptop">
	<path class="st0" d="M4.5,3.6h15.1c1.2,0,2.1,0.9,2.1,2.1v8.1c0,1.2-0.9,2.1-2.1,2.1H4.5c-1.2,0-2.1-0.9-2.1-2.1V5.7
		C2.4,4.6,3.3,3.6,4.5,3.6z"/>
	<path class="st0" d="M20.5,16.6l2.7,3.6c0.3,0.5,0.2,1.2-0.3,1.5c-0.2,0.1-0.4,0.2-0.6,0.2H1.7c-0.6,0-1.1-0.5-1.1-1
		c0-0.2,0.1-0.4,0.2-0.6l2.7-3.6"/>
</g>
</svg>
